<?xml version="1.0" encoding="utf-8"?>
<!-- Generator: Adobe Illustrator 27.5.0, SVG Export Plug-In . SVG Version: 6.00 Build 0)  -->
<svg version="1.1" xmlns="http://www.w3.org/2000/svg" xmlns:xlink="http://www.w3.org/1999/xlink" x="0px" y="0px"
	 viewBox="0 0 500 500" style="enable-background:new 0 0 500 500;" xml:space="preserve">
<g id="BACKGROUND">
	<rect style="fill:#A8F8F0;" width="500" height="500"/>
</g>
<g id="OBJECTS">
	<g>
		<defs>
			<rect id="SVGID_1_" x="0" y="0" width="500" height="500"/>
		</defs>
		<clipPath id="SVGID_00000036952985096240813820000010541872210254148789_">
			<use xlink:href="#SVGID_1_"  style="overflow:visible;"/>
		</clipPath>
		<polygon style="clip-path:url(#SVGID_00000036952985096240813820000010541872210254148789_);fill:#B5F9F2;" points="0,105.667 
			500,105.667 500,146.34 64.08,171.96 500,221.252 500,255.248 0,211.964 0,135.838 294.6,135.838 0,107.792 		"/>
		<g style="clip-path:url(#SVGID_00000036952985096240813820000010541872210254148789_);">
			<path style="fill:#71F2F7;" d="M153.03,120.9H85.836C106.083,108.849,133.185,108.196,153.03,120.9z"/>
			<path style="fill:#FFFFFF;" d="M462.762,33.81H164.01c10.564-11.468,23.419-16.15,38.922-17.816
				c15.503-1.666,31.236,1.232,45.943,6.409c20.012-22.518,45.971-36.032,76.096-35.811c30.125,0.221,59.895,13.987,79.576,36.796
				C422.91,15.936,448.097,20.482,462.762,33.81z"/>
			<path style="fill:#71F2F7;" d="M362.904,186.27H231.348c4.652-5.05,10.313-7.112,17.139-7.845
				c6.827-0.734,13.755,0.542,20.231,2.822c8.813-9.916,20.243-15.867,33.509-15.77c13.265,0.097,26.375,6.159,35.041,16.203
				C345.355,178.4,356.447,180.402,362.904,186.27z"/>
			<path style="fill:#DBFDF7;" d="M379.362,28.934c-11.592-18.161-49.83-37.524-90.923-35.32
				C273.55-0.274,260.25,9.604,248.876,22.402c-14.708-5.177-30.441-8.074-45.943-6.409c-15.503,1.666-28.358,6.348-38.922,17.816
				h298.752L379.362,28.934z"/>
			<path style="fill:#FFFFFF;" d="M308.738,77.132h-686.665c60.542-40.483,143.196-44.349,204.999-5.818
				C-158.726,19.42-115.28-23.062-62.981-35.692C-10.683-48.321,47.852-30.444,84.17,9.25c26.499-12.32,57.346-10.882,85.078-1.666
				s51.676,29.338,65.53,55.068C259.928,50.044,287.791,58.352,308.738,77.132z"/>
			<path style="fill:#FFFFFF;" d="M243.104,217.385H-55.648c10.564-11.468,23.419-16.15,38.922-17.816
				c15.503-1.666,31.236,1.232,45.944,6.409c20.012-22.518,45.971-36.032,76.096-35.811c30.125,0.221,59.895,13.987,79.575,36.796
				C203.251,199.511,228.439,204.057,243.104,217.385z"/>
			<path style="fill:#FFFFFF;" d="M648.939,183.627h-296.92c33.16-31.278,74.881-47.956,116.662-48.655
				c41.781-0.698,83.679,12.355,117.67,36.66C608.846,162.9,628.814,164.464,648.939,183.627z"/>
			<path style="fill:#71F2F7;" d="M131.175,208.617h-246.214c27.497-21.085,62.093-34.915,96.739-35.494
				c34.646-0.579,69.389,10.245,97.575,30.4C97.929,196.282,114.487,197.578,131.175,208.617z"/>
			<path style="fill:#71F2F7;" d="M293.118,159.601H176.92c12.977-17.584,29.304-29.118,45.655-29.601
				c16.351-0.483,32.747,8.544,46.05,25.352C277.428,149.314,285.242,150.395,293.118,159.601z"/>
			<path style="fill:#71F2F7;" d="M-132.853,247.872h-107.001c13.348-12.484,30.416-14.262,46.032-4.767
				c6.41-11.225,18.167-16.522,31.03-15.242C-149.928,229.144-136.924,235.603-132.853,247.872z"/>
			<path style="fill:#DBFDF7;" d="M308.738,77.132l-160.98-6.52C114.066,26.654,53.422,4.613-1.09,14.404
				C-6.967-5.592-19.75-23.488-36.76-35.533c-1.772-1.255-3.599-2.429-5.455-3.554c-6.986,0.628-13.93,1.745-20.766,3.396
				C-115.28-23.062-158.726,19.42-172.927,71.314c-61.803-38.531-144.458-34.665-204.999,5.818H308.738z"/>
			<path style="fill:#DBFDF7;" d="M-49.81,123.091h-150.787c8.459-14.725,23.401-28.202,40.356-29.156
				c16.955-0.954,34.156,7.151,44.214,20.833c9.917-6.379,19.401-4.985,28.782,2.159C-75.357,110.99-57.269,112.093-49.81,123.091z"
				/>
			<path style="fill:#DBFDF7;" d="M87.036,171.81c-22.406,4.197-41.981,16.345-57.819,34.167
				c-14.708-5.177-30.441-8.074-45.944-6.409c-15.503,1.666-28.358,6.348-38.922,17.816h298.752l-76.425-5.201
				C166.678,212.184,139.14,181.448,87.036,171.81z"/>
			<path style="fill:#FFFFFF;" d="M180.482,160.11h-374.078c54.606-16.902,109.213-32.92,149.74-22.601
				c9.729-34.417,43.473-65.079,79.239-65.104c35.766-0.025,68.082,31.199,77.858,65.602
				C145.744,134.107,170.447,143.208,180.482,160.11z"/>
			<path style="fill:#DBFDF7;" d="M97.638,149.709c-2.671-33.83-21.81-62.776-59.904-77.252c-0.783-0.024-1.567-0.052-2.352-0.051
				c-35.766,0.025-69.51,30.687-79.239,65.104c-60.029-21.252-126.599-0.802-149.74,22.601h374.078L97.638,149.709z"/>
			<g>
				<path style="fill:#FFFFFF;" d="M681.21,110.024H180.468c44.149-17.458,104.424-19.125,149.493-2.509
					C340.318,85.136,372,66.816,410.138,61.369c38.138-5.446,80.824,2.263,107.309,19.381c19.324-5.313,41.819-4.693,62.042-0.718
					c20.223,3.974,33.784,10.701,43.886,21.798C641.715,96.392,665.935,101.925,681.21,110.024z"/>
				<path style="fill:#71F2F7;" d="M469.87,131.327H301.391c6.629-9.556,17.832-18.665,29.609-22.035
					c11.778-3.37,24.846-2.784,36.211,1.623c10.038-13.814,21.778-21.745,36.687-24.321c14.91-2.576,28.922-0.127,40.817,8.522
					C456.61,103.765,466.706,117.699,469.87,131.327z"/>
				<path style="fill:#DBFDF7;" d="M681.21,110.023l-74.967-6.082c0,0-12.603-11.687-32.877-24.987
					c-18.564-2.952-38.524-2.987-55.92,1.795c-26.485-17.118-69.17-30.678-107.309-25.231c-38.138,5.446-63.926,21.12-80.177,42.245
					c-45.069-16.616-105.344-5.198-149.493,12.26H681.21z"/>
			</g>
			<path style="fill:#DBFDF7;" d="M621.633,183.627l-40.786-7.801c0,0-29.507-22.818-77.952-38.343
				c-11.305-1.824-22.761-2.702-34.213-2.51c-41.781,0.698-83.502,17.376-116.662,48.655H621.633z"/>
			<path style="fill:#71F2F7;" d="M176.92,239.221H33.258c12.666-5.009,29.959-7.725,42.889-2.958
				c5.675-6.848,12.061-11.676,23.003-13.239c10.942-1.562,23.188,2.887,30.787,7.798c5.544-1.524,11.998-1.346,17.8-0.206
				c5.802,1.14,9.692,3.07,12.591,6.254C165.589,235.31,172.537,236.898,176.92,239.221z"/>
			<path style="fill:#FFFFFF;" d="M660.389,57.705h-319.82c39.031-28.07,93.115-34.107,134.56-9.74
				c20.401-32.061,57.908-52.177,95.694-48.139C608.61,3.863,647.223,22.057,660.389,57.705z"/>
			<path style="fill:#DBFDF7;" d="M574.615,0.28c-1.264-0.167-2.528-0.32-3.791-0.455c-37.787-4.037-75.293,16.078-95.694,48.14
				c-41.444-24.366-95.529-18.33-134.56,9.74H613.19C606.234,41.629,594.187,19.759,574.615,0.28z"/>
			<path style="fill:#71F2F7;" d="M471.954,202.059h-46.553C439.429,193.709,458.206,193.257,471.954,202.059z"/>
			<g>
				<path style="fill:#FFFFFF;" d="M514.46,230.964H195.785c11.268-15.602,24.981-21.972,41.518-24.238
					c16.537-2.266,33.319,1.676,49.007,8.719c21.347-30.635,49.037-49.02,81.171-48.72c32.134,0.301,63.89,19.028,84.882,50.059
					C471.95,206.648,498.817,212.832,514.46,230.964z"/>
				<path style="fill:#DBFDF7;" d="M352.504,167.976c-25.798,4.606-48.24,21.703-66.194,47.469
					c-15.689-7.043-32.471-10.985-49.007-8.719c-16.537,2.266-30.249,8.636-41.518,24.238h227.086
					C413.978,212.328,393.463,180.903,352.504,167.976z"/>
			</g>
		</g>
		<g style="clip-path:url(#SVGID_00000036952985096240813820000010541872210254148789_);">
			
				<rect x="0" y="267" transform="matrix(-1 -1.224647e-16 1.224647e-16 -1 500.0002 767)" style="fill:#F8ECC2;" width="500" height="233"/>
			<path style="fill:#DDCFAA;" d="M0,384.995c25.258,4.962,50.679,10.878,76.185,10.679c51.41-0.402,100.607-25.667,151.954-23.554
				c46.22,1.902,89.248,25.881,135.519,26.301c37.614,0.342,74.702-14.994,112.03-10.734c8.129,0.928,16.146,2.764,24.312,3.249V267
				H0V384.995z"/>
			<path style="fill:#23BAF7;" d="M0,381.271c25.258,4.491,50.679,9.845,76.185,9.665c51.41-0.363,100.607-23.23,151.954-21.317
				c46.22,1.722,89.248,23.423,135.519,23.803c37.614,0.309,74.702-13.57,112.03-9.715c8.129,0.84,16.146,2.502,24.312,2.94V260H0
				V381.271z"/>
			<path style="fill:#25D3FD;" d="M0,304.333v76.937c25.258,4.491,50.679,9.845,76.185,9.665
				c51.41-0.363,100.607-23.23,151.954-21.317c46.22,1.722,89.249,23.423,135.52,23.803c37.614,0.309,74.702-13.57,112.03-9.715
				c8.129,0.84,16.146,2.502,24.312,2.94v-82.314H0z"/>
			<g>
				<path style="fill:#FCFBFF;" d="M236.209,325.335c0.674-0.37,1.301-0.838,1.854-1.458
					C237.445,324.364,236.827,324.849,236.209,325.335z"/>
				<g>
					<path style="fill:#FCFBFF;" d="M455.955,334.127c-4.287,2.144-10.435,2.379-15.108,3.15c-4.249,0.701-7.744,0.569-12.095,0.122
						c-1.682-0.173-3.377-0.346-5.059-0.183c-3.189,0.31-6.173,1.811-9.364,2.09c-3.532,0.309-7.19-0.888-10.582,0.143
						c-0.705,0.215-1.484,0.66-1.533,1.396c-0.08,1.209,1.64,1.502,2.85,1.421c2.858-0.19,6.289,0.439,7.451,3.058
						c0.151,0.341,0.256,0.714,0.216,1.084c-0.023,0.216-0.094,0.416-0.199,0.596c-0.329,0.565-1.001,0.949-1.659,1.124
						c-3.045,0.811-6.461-1.136-9.385-1.806c-3.161-0.724-6.364-0.662-9.612-0.586c-5.715,0.133-12.155,0.11-17.8,1.209
						c-1.732,0.337-3.494,0.837-5.234,0.541c-0.907-0.154-1.936-0.771-1.85-1.687c0.059-0.62,0.614-1.064,1.152-1.378
						c2.921-1.707,6.541-1.789,9.863-1.146c0.938,0.181,1.91,0.416,2.832,0.168s1.743-1.184,1.48-2.102
						c-6.887-1.202-14.08,0.742-20.903-0.779c-2.169-0.484-4.702-1.234-6.407,0.191c-0.496,0.665,0.615,1.345,1.439,1.442
						c1.45,0.17,2.899,0.341,4.349,0.511c0.682,0.08,1.571,0.4,1.496,1.083c-0.033,0.302-0.266,0.541-0.506,0.727
						c-1.966,1.527-5.224,0.483-7.262-0.428c-1.409-0.63-2.755-1.4-4.012-2.296c-1.096-0.782-2.152-1.674-3.428-2.103
						c-2.299-0.772-4.801,0.106-7.023,1.078c-2.222,0.972-4.559,2.074-6.962,1.743c-2.403-0.331-4.654-2.849-3.708-5.083
						c0.517-1.221,1.771-1.939,2.963-2.521c2.759-1.347,5.64-2.443,8.595-3.277c2.136-0.602,5.859-0.489,7.123-2.6
						c2.567-4.288-4.31-4.371-7.066-4.094c-4.354,0.439-8.444,2.262-12.73,3.146c-3.822,0.788-7.796,0.807-11.629,0.079
						c1.709,0.491,3.432,1.033,5.165,1.193c2.134,0.197,4.277-0.198,6.366-0.676c3.947-0.904,7.88-2.136,11.94-2.416
						c1.91-0.132,6.147-0.753,4.482,2.017c-1.287,2.143-6.984,3.193-9.269,3.528c-4.067,0.597-8.276,0.677-12.102,2.182
						c-1.517,0.597-3.187,1.927-2.744,3.496c0.207,0.732,0.837,1.263,1.169,1.946c0.791,1.628-0.398,3.66-2.035,4.434
						c-2.208,1.044-5.478,0.768-7.908,0.964c-5.811,0.467-11.292,4.598-16.982,3.326c-1.983-0.444-3.765-1.52-5.705-2.123
						c-2.35-0.731-4.854-0.748-7.314-0.74c-8.715,0.028-17.429,0.288-26.131,0.779c-0.847-1.331,0.683-2.873,2.003-3.736
						c1.321-0.863,2.774-2.53,1.804-3.774c-0.388-0.497-1.041-0.685-1.65-0.845c-4.918-1.292-9.3-1.785-14.309-2.412
						c-5.57-0.367-12.314,0.156-17.626-1.707c-1.447-0.508-3.037-1.593-2.9-3.12c0.079-0.884,0.763-1.621,1.558-2.015
						c0.795-0.394,1.696-0.505,2.577-0.611c2.073-0.249,4.146-0.498,6.22-0.747c0.964-0.116,1.796-0.273,2.471-0.956
						c-2.03-0.575-5.654,0.319-7.97,0.27c-3.13-0.066-6.132,0.067-8.486,2.423c-0.993,0.994-1.667,2.414-1.415,3.797
						c0.283,1.552,1.642,2.694,3.074,3.357c2.665,1.235,5.712,1.251,8.649,1.221c4.638-0.048,9.276-0.158,13.912-0.328
						c1.558-0.057,3.183-0.109,4.6,0.543c1.417,0.651,2.533,2.243,2.101,3.741c-2.397,1.527-5.455,1.284-8.291,1.46
						c-2.836,0.176-6.089,1.2-7.032,3.881c-0.215,0.611-0.299,1.289-0.7,1.798c-0.666,0.846-1.987,0.887-2.959,0.424
						c-0.972-0.464-1.698-1.306-2.463-2.064c-5.392-5.34-11.482-4.75-18.289-5.783c-8.378-1.272-16.915-1.508-25.348-0.671
						c-3.818,0.379-7.98,0.9-11.224-1.15c-2.225-1.406-3.661-3.839-5.919-5.192c-2.382-1.428-5.317-1.456-8.094-1.443
						c-8.254,0.039-17.237-1.66-25.164,0.724c-0.768,0.231-1.553,0.489-2.353,0.43c-0.8-0.059-1.631-0.523-1.852-1.294
						c-0.316-1.108,0.724-2.14,1.765-2.635c1.04-0.495,2.262-0.812,2.923-1.755c1.094-1.56-0.081-3.771-1.635-4.874
						c-2.039-1.447-4.751-1.901-7.15-1.195c-0.785,0.231-1.551,0.58-2.368,0.608c-2.468,0.082-4.556-2.742-6.938-2.094
						c-0.27,0.074-0.576,0.27-0.537,0.548c0.018,0.127,0.106,0.23,0.194,0.324c1.558,1.67,3.912,2.564,6.186,2.349
						c1.384-0.131,2.714-0.645,4.1-0.743c1.387-0.099,2.969,0.361,3.584,1.608c0.789,1.599-0.521,3.581-2.189,4.213
						c-1.668,0.632-3.522,0.332-5.294,0.127c-0.43-0.05-0.886-0.089-1.277,0.098c-0.536,0.257-0.795,0.858-1.055,1.392
						c-0.639,1.312-1.629,2.553-3.014,3.011c-1.385,0.458-3.176-0.158-3.612-1.55c-0.966-3.088,1.202-4.46-1.763-7.107
						c-1.52-1.356-3.344-2.376-5.196-3.207c-4.994-2.241-10.676-2.985-16.102-3.176c-22.893-0.807-45.785-1.615-68.678-2.422
						c-7.738-0.273-15.977-0.722-22.448-4.799v12.538c0.719-0.258,1.489-0.505,2.317-0.739c2.885-0.815,6.79-1.506,11.013-1.427
						c6.391,0.12,10.773,1.905,17.091,2.185c2.996,0.133,6.029-0.093,8.987-0.275c20.793-1.28,43.395-0.396,61.876,2.42
						c2.628,0.4,5.264,0.862,6.836,1.545c1.795,0.78,1.96,1.739,1.975,2.651c0.04,2.333-1.873,5.435-12.063,5.972
						c-8.402,0.443-13.865-0.679-22.807,0.612c-10.323,1.49-17.565,4.311-28.805,5.318c-26.531,2.377-18.56-5.461-30.611-8.216
						C11.11,332.523,4.698,332.062,0,331.03v6.159c4.343,0.722,7.724,1.999,8.905,3.342c2.023,2.298-0.465,4.68-2.463,6.98
						c-1.615,1.859-2.917,3.738-3.898,5.628c-1.097,2.111-1.672,4.396,2.39,6.239c3.595,1.631,10.722,2.913,10.568,4.798
						c-0.131,1.605-6.319,2.874-12.42,2.86c-1.047-0.002-2.076-0.037-3.082-0.096v2.371c0.54-0.132,1.099-0.26,1.691-0.379
						c11.771-2.361,31.046-1.373,38.593,1.977c3.325,1.476,4.445,3.211,6.481,4.841c2.036,1.63,5.47,3.29,11.424,3.989
						c5.727,0.672,12.322,0.301,18.574,0.172c6.252-0.129,13.606,0.156,16.767,1.582c2.807,1.266,0.859,2.984-3.241,3.976
						c-4.101,0.992-9.807,1.384-15.346,1.538c-23.941,0.663-46.895-2.484-67.122-5.919c-2.719-0.462-5.437-0.936-7.821-1.509v2.329
						c25.258,4.255,50.679,9.329,76.185,9.158c51.41-0.344,100.607-22.011,151.954-20.199c46.22,1.631,89.248,22.194,135.519,22.555
						c37.614,0.293,74.702-12.858,112.03-9.205c8.129,0.795,16.146,2.371,24.312,2.786v-1.292c-2.706-0.182-5.192-0.613-7.378-1.088
						c-2.85-0.619-5.46-1.335-8.729-1.789c-5.132-0.714-11.234-0.699-16.84-1.095c-2.635-0.186-8.692-1.346-9.311-2.136
						c-1.762-2.249,6.561-1.36,12.734-1.066c10.176,0.484,20.881,1.045,29.524,2.442v-4.539c-2.269,0.479-4.859,0.842-7.714,1.037
						c-3.199,0.218-6.561,0.222-9.848,0.131c-12.895-0.356-25.081-2.222-32.629-4.996c-2.887-1.061-5.174-2.318-4.822-3.619
						c0.292-1.08,2.357-2.065,4.52-2.986c3.694-1.572,8.011-3.12,14.1-4.041c7.404-1.12,16.476-1.165,24.935-0.859
						c4.034,0.146,8.217,0.392,11.457,1.019v-7.153c-1.437-0.36-2.66-0.787-3.561-1.238c-2.878-1.441-3.555-3.108-5.536-4.651
						c-1.98-1.542-5.995-3.098-12.072-3.402c-8.579-0.429-15.513,1.739-23.53,2.65c-5.723,0.65-12.17,0.651-18.401,0.61
						c-2.728-0.018-5.482-0.043-8.12-0.226c-5.892-0.409-10.892-1.674-12.373-3.229s0.791-3.334,5.729-4.274
						c9.973-1.898,24.522,0.045,36.057-1.085c6.104-0.598,10.755-2.009,17-2.496c0.552-0.043,1.106-0.078,1.661-0.106
						c8.323-0.412,16.898,0.877,23.134,2.448c0.004,0.001,0.008,0.002,0.012,0.003v-6.714c-2.076-0.558-4.23-0.911-6.357-1.172
						C481.091,330.552,468.268,331.244,455.955,334.127z M469.941,350.807c8.799,0.433,14.605,3.085,12.661,5.384
						c-0.561,0.664-1.734,1.323-3.819,1.726c-1.257,0.243-2.772,0.378-4.301,0.458c-6.543,0.345-13.714-0.334-17.924-1.696
						c-1.569-0.508-2.751-1.107-3.214-1.75C451.677,352.615,461.142,350.374,469.941,350.807z M242.324,354.261
						c0.141-0.148,0.344-0.296,0.604-0.443c4.169-2.358,22.9-4.495,31.216-4.36c6.314,0.103,11.956,1.01,17.818,1.636
						c5.862,0.626,13.046,0.938,18.145-0.048c3.447-0.666,5.134-1.772,7.3-2.742c5.314-2.38,15.483-4.216,25.863-3.817
						c10.38,0.4,18.539,3.685,13.439,6.098c-4.095,1.937-14.327,2.635-17.528,4.685c-3.23,2.069,2.028,4.249,0.044,6.424
						c-1.716,1.882-6.473,3.534-12.2,4.708c-10.923,2.239-26.851,2.892-38.876,0.866c-5.239-0.883-10.649-1.835-13.662-3.267
						c-1.931-0.918-2.766-1.989-5.086-2.842C262.609,358.661,238.242,358.559,242.324,354.261z M177.065,347.826
						c2.871-0.559,5.538-1.22,8.844-1.576c5-0.538,10.678-0.298,15.934,0.03c8.623,0.537,17.701,1.413,22.561,3.363
						c2.786,1.118,3.703,2.706,0.512,3.746c-3.083,1.005-8.679,1.14-13.568,1.031c-4.889-0.109-10.007-0.374-14.558,0.109
						c-3.637,0.386-6.342,1.194-8.894,1.977c-2.551,0.783-5.227,1.596-8.84,1.997c-3.613,0.401-8.449,0.243-10.543-0.629
						c-1.321-0.55-1.297-1.248-2.13-1.861c-1.241-0.913-4.327-1.598-5.414-2.524c-1.423-1.212,0.984-2.535,4.415-3.426
						C168.816,349.17,173.189,348.58,177.065,347.826z M92.093,342.022c2.073-0.447,4.739-0.645,7.322-0.832
						c6.188-0.449,12.377-0.897,18.565-1.346c12.357-0.896,25.373-1.796,37.823-0.995c6.832,0.44,13.953,1.706,14.264,3.555
						c0.349,2.07-7.618,3.476-14.576,4.446c-3.279,0.457-6.63,0.921-10.288,1.085c-3.332,0.15-6.778,0.044-10.101,0.207
						c-4.513,0.221-8.463,0.918-12.79,1.32c-10.302,0.959-22.716,0.046-29.636-2.18C87.981,345.773,86.356,343.258,92.093,342.022z
						 M131.342,379.513c-4.652,0.807-9.582,1.625-15.133,1.752c-5.55,0.126-11.83-0.691-12.962-2.126
						c-0.573-0.727,0.232-1.482,1.365-2.162c2.802-1.682,7.917-3.153,14.516-3.75c6.599-0.597,14.647-0.184,19.139,1.221
						c1.56,0.488,2.68,1.096,2.732,1.733C141.117,377.642,135.98,378.708,131.342,379.513z M133.337,369.41
						c-16.11-0.427-32.836,1.503-42.558,4.91c-2.072,0.726-3.922,1.533-6.806,2.032c-8.401,1.453-19.754-0.581-23.989-2.98
						c-4.234-2.399-4.866-5.213-10.398-7.421c-9.149-3.653-29.454-4.776-36.41-8.75c-4.05-2.313-2.264-5.157,3.23-7.254
						c5.493-2.097,14.245-3.497,23.508-4.235c10.254-0.818,22.483-0.778,30.435,1.112c9.995,2.375,11.947,7.235,25.146,7.938
						c8.623,0.46,16.568-1.288,25.196-1.741c15.356-0.807,29.494,2.628,36.399,6.327c3.375,1.808,5.799,3.823,4.778,5.819
						c-1.021,1.996-6.184,3.941-13.629,4.408C143.374,369.88,138.313,369.542,133.337,369.41z M310.066,379.084
						c-5.201,0.871-12.029-0.059-16.616-1.142c-13.267-3.134-25.916-7.304-43.227-9.198c-19.517-2.136-47.42-1.659-64.818,1.574
						c-4.147,0.771-28.506,7.006-29.373,2.794c-0.129-0.628,1.339-1.193,2.741-1.703c5.835-2.122,11.67-4.243,17.505-6.365
						c5.329-1.938,11.017-3.955,19.265-4.96c9.691-1.181,21.063-0.736,31.366,0.003c11.868,0.851,23.64,2.105,32.695,4.296
						c9.622,2.328,15.977,5.654,27.511,7.271c6.659,0.934,14.585,1.217,20.629,2.406
						C313.789,375.248,316.432,378.018,310.066,379.084z M327.186,385.741c-4.333-0.409-8.354-1.249-9.625-2.413
						c-2.938-2.689,9.141-3.246,15.946-2.266c1.742,0.251,3.136,0.562,4.199,0.906C343.712,383.908,339.172,386.874,327.186,385.741
						z M429.364,382.451c-10.012,1.587-20.025,3.174-30.037,4.76c-10.646,1.687-22.841,3.44-34.853,2.602
						c-3.7-0.258-7.269-0.79-9.335-1.638c-5.077-2.084,0.667-5.005-3.177-7.264c-5.386-3.166-25.934-3.202-29.225-6.561
						c-1.429-1.458,1.408-3.03,5.761-4.008s9.976-1.462,15.53-1.824c8.522-0.556,17.995-0.844,25.698,0.265
						c3.377,0.486,6.183,1.213,9.554,1.702c13.713,1.99,32.25-0.43,45.926,1.577c4.371,0.642,7.699,1.671,10.892,2.685
						c3.263,1.037,6.663,2.21,6.51,3.555C442.391,380.19,435.511,381.477,429.364,382.451z M434.729,354.262
						c3.205,0.592,6.403,1.304,7.591,2.286c0.87,0.719,0.549,1.496,0.187,2.244c-1.613,3.336-4.65,6.998-15.027,8.961
						c-8.816,1.668-21.07,1.632-31.132,0.558c-10.062-1.075-18.331-3.044-25.947-5.081c-5.166-1.382-10.432-2.989-10.73-4.925
						c-0.286-1.857,4.204-3.56,9.695-4.729c9.101-1.937,21.232-2.765,32.906-2.538C413.946,351.264,425.15,352.491,434.729,354.262z
						"/>
					<path style="fill:#FCFBFF;" d="M315.689,327.974c0.317,0.071,0.638,0.127,0.957,0.188c-0.95-0.273-1.895-0.525-2.835-0.69
						C314.431,327.661,315.057,327.833,315.689,327.974z"/>
					<path style="fill:#FCFBFF;" d="M309.536,327.616c1.411-0.441,2.837-0.396,4.275-0.144c-1.44-0.438-2.84-1.004-4.132-1.772
						C309.195,326.199,309.131,327.051,309.536,327.616z"/>
				</g>
			</g>
		</g>
		<g style="clip-path:url(#SVGID_00000036952985096240813820000010541872210254148789_);">
			<g>
				<polygon style="fill:#25D3FD;" points="500,269.474 0,267.116 0,279 500,279 				"/>
				<polygon style="fill:#25D3FD;" points="500,288.769 0,294.105 0,297.892 500,294.577 				"/>
				<polygon style="fill:#25D3FD;" points="465.649,285 0,279.368 0,285 				"/>
			</g>
		</g>
		<path style="clip-path:url(#SVGID_00000036952985096240813820000010541872210254148789_);fill:#3A5D71;" d="M500,435.127
			c-1.227,1.091-2.376,2.269-3.41,3.543c1.694-4.039,2.67-8.218,3.136-12.573c0.018-0.17,0.035-0.342,0.048-0.513
			c0.075,0.003,0.15-0.005,0.225-0.003v-8.311c-4.478,0.749-9.129,0.458-13.437-0.985c1.216,3.807,4.376,6.756,8.112,8.239
			c-2.264,2.512-4.021,5.481-5.12,8.679c0.217-3.526-0.104-7.095-0.943-10.527c-0.528-2.161-1.966-9.37-5.621-6.407
			c-0.817,0.662-1.289,1.65-1.711,2.612c-1.307,2.972-2.403,6.037-3.278,9.163c-0.243-1.947-0.734-3.977-1.473-5.795
			c-0.625-1.537-1.3-3.144-2.596-4.18c-0.635-0.508-1.462-0.86-2.255-0.684c-1.154,0.257-1.789,1.482-2.184,2.597
			c-0.662,1.869-0.85,3.679-1.042,5.652c-0.014,0.147-2.628-2.018-2.821-2.196c-1.06-0.976-2.224-1.838-3.463-2.572
			c-3.093-1.833-6.455-2.565-9.969-3.084c-0.525-0.078-1.101-0.141-1.549,0.142c-0.866,0.547-0.621,1.854-0.271,2.816
			c0.969,2.662,1.692,5.432,2.967,7.973c0.641,1.277,1.427,2.498,2.438,3.514c1.021,1.026,2.48,1.676,3.293,2.896
			c-2.607-0.569-5.342-0.738-8-0.534c-1.057,0.081-2.13,0.594-2.205,1.783c-0.05,0.789,0.327,1.543,0.768,2.2
			c2.481,3.698,7.061,5.685,11.225,6.772c1.271,0.332,3.318,1.096,4.631,0.879c-4.38,0.724-9.794,2.223-13.381,4.954
			c-1.066,0.812-1.259,2.278-0.507,3.421c0.919,1.398,3.023,1.634,4.5,2.073c0.862,0.256,3.478,1.252,4.318,0.818
			c-3.754,1.939-7.76,4.197-9.41,8.086c-0.298,0.701-0.501,1.53-0.146,2.204c0.491,0.93,1.301,1.453,2.268,1.726
			c-0.006,0.007-0.012,0.015-0.018,0.022c-2.234-0.163-4.498,0.024-6.686,0.552c0.933-3.024,1.774-6.077,2.492-9.16
			c-1.912,3.499-4.002,6.9-6.026,10.336c-1.563,0.672-3.042,1.523-4.388,2.549c1.812-6.957,2.796-14.129,2.898-21.317
			c-3.087,6.71-6.618,13.239-9.034,20.218c-0.371,1.07-0.7,2.159-1.009,3.254c-0.77-0.427-1.558-0.819-2.359-1.184
			c1.105-8.83,0.262-17.654-2.572-26.525c-3.319,7.616-4.581,16.077-3.815,24.345c-1.005-0.236-2.019-0.429-3.041-0.574
			c2.707-9.342,1.108-19.913-4.489-27.897c-0.924,9.222-0.296,18.585,1.777,27.618c-0.617-0.038-1.236-0.062-1.854-0.066
			c-1.054-1.194-2.126-2.372-3.226-3.525c0.278-5.431-0.603-10.92-2.581-15.987c-0.727-1.861-1.677-3.759-3.351-4.85
			c-0.391,7.087,1.526,14.277,5.368,20.244c-6.637-6.867-14.062-12.972-22.114-18.109c3.935,6.167,7.872,12.591,14.908,14.593
			c1.749,1.38,3.449,2.822,5.102,4.315c-4.809-1.79-9.986-2.549-15.109-2.289c0.129-0.524,0.267-1.046,0.39-1.572
			c-0.293,0.536-0.602,1.062-0.902,1.594c-2.014,0.13-4.018,0.404-5.984,0.859c1.353,0.848,2.795,1.541,4.289,2.096
			c-1.944,3.308-3.949,6.581-5.805,9.935c-0.877,0.161-1.746,0.349-2.609,0.558c2.189-7.627,3.382-15.54,3.495-23.475
			c-3.087,6.71-6.618,13.239-9.034,20.218c-0.417,1.204-0.784,2.431-1.122,3.666c-0.804-0.147-1.61-0.28-2.42-0.385
			c1.341-9.234,0.565-18.46-2.398-27.736c-3.374,7.743-4.621,16.358-3.772,24.757c-0.15-0.222-0.292-0.448-0.445-0.668
			c-0.076,1.092-0.125,2.186-0.177,3.28c-1.182,0.016-2.363,0.063-3.542,0.163c-0.058-0.072-0.114-0.146-0.172-0.217
			c4.316-10.115,3.081-22.428-3.237-31.44c-1.023,10.219-0.159,20.616,2.486,30.539c-1.852-2.238-3.784-4.41-5.789-6.512
			c0.278-5.431-0.604-10.92-2.581-15.987c-0.727-1.861-1.677-3.759-3.351-4.85c-0.391,7.087,1.526,14.277,5.368,20.244
			c-6.637-6.867-14.062-12.972-22.114-18.108c3.935,6.166,7.872,12.591,14.908,14.593c1.749,1.38,3.449,2.822,5.102,4.315
			c-6.861-2.553-14.473-3.058-21.606-1.408c6.521,4.083,15.019,4.799,22.144,1.906c2.436,2.232,4.762,4.583,6.971,7.04
			c-9.681-2.909-20.548-1.617-29.275,3.484c4.773,0.986,9.698,1.193,14.542,0.661c-3.743,1.654-7.288,3.747-10.524,6.236
			c-0.88,0.291-1.758,0.585-2.634,0.88c0.337,0.147,0.684,0.27,1.025,0.408c-1.371,1.149-2.677,2.375-3.912,3.67
			c-3.121-0.143-6.228,0.008-9.272,0.48c0.851-1.989,0.666-4.483-0.668-6.164c-0.919,4.303-4.987,7.722-9.384,7.887
			c-0.561,0.021-1.21-0.05-1.526-0.514c-0.449-0.659,0.12-1.553,0.78-2.002c1.048-0.713,2.333-0.965,3.581-1.193
			c1.247-0.228,2.532-0.461,3.6-1.145c1.068-0.683,1.875-1.941,1.633-3.186c-0.203-1.046-1.058-1.816-1.694-2.672
			c-1.169-1.573-1.65-3.64-1.295-5.568c-0.952,1.84-3.275,1.837-5.334,2.067c-2.059,0.23-4.394,0.537-5.591,2.227
			c-1.007,1.421-0.823,3.416-0.04,4.971c0.307,0.611,0.707,1.212,0.74,1.895c0.033,0.683-0.516,1.452-1.189,1.331
			c-0.582-0.105-0.866-0.76-1.017-1.332c-0.778-2.94-0.648-6.114,0.368-8.981c-3.216,0.611-5.645,3.979-5.209,7.224
			c0.248,1.847,1.268,3.482,2.112,5.143c0.293,0.577,0.573,1.194,0.542,1.841c-0.023,0.479-0.275,0.972-0.665,1.222
			c-0.488-0.098-0.977-0.193-1.468-0.273c-0.335-0.354-0.58-0.862-0.731-1.333c-0.912-2.85-1.223-5.89-0.907-8.866
			c-2.168,1.172-3.555,3.657-3.413,6.117c0.066,1.15,0.415,2.382,0.887,3.604c-0.275-0.018-0.55-0.029-0.825-0.043
			c-0.272-0.784-0.678-1.504-1.4-2.074c-0.314,0.638-0.526,1.313-0.649,2.006c-0.897-0.009-1.797,0.008-2.699,0.041
			c0.262-1.871,0.461-3.751,0.546-5.639l-3.569,5.826c-2.262,0.187-4.531,0.474-6.796,0.84c0.203-6.051-0.624-12.137-2.486-17.898
			c-2.002,6.222-3.373,12.645-4.109,19.139c-0.319,0.067-0.632,0.141-0.951,0.21H500V435.127z M407.87,472.394
			c-2.405,0.515-4.744,1.313-6.973,2.348c-0.979,0.136-1.953,0.301-2.918,0.512c0.216-0.731,0.436-1.464,0.649-2.194
			c-0.721,0.832-1.419,1.683-2.098,2.549c-2.042,0.534-4.038,1.234-5.958,2.108c0.933-2.714,1.78-5.457,2.542-8.223
			c5.374,1.656,11.324,1.481,16.54-0.637c1.024,0.938,2.018,1.909,3.003,2.889C411.049,471.848,409.448,472.057,407.87,472.394z
			 M453.14,469.532c0.002-0.007,0.004-0.014,0.006-0.021c0.038,0.011,0.076,0.021,0.115,0.031
			C453.221,469.538,453.181,469.535,453.14,469.532z M263.207,500c0.003-0.199-0.001-0.397,0.007-0.596
			c0.181,0.197,0.352,0.397,0.527,0.596H263.207z M498.646,367.106c0.444-0.169,0.897-0.302,1.354-0.414v1.593
			C499.557,367.882,499.112,367.482,498.646,367.106z M487,374.025c-3.77,1.78-7.748,4.237-11.322,2.091
			c2.644,2.928,4.004,6.978,3.661,10.908c-0.186,2.137-0.837,4.36-0.08,6.367c0.901,2.388,3.612,3.691,6.163,3.734
			c2.552,0.043,5-0.915,7.378-1.842c2.316-0.903,4.72-1.796,7.2-1.737v-21.036c-0.338-0.218-0.691-0.415-1.069-0.575
			C495.095,370.304,490.771,372.245,487,374.025z M487.708,392.358c-0.506,0.371-1.126,0.546-1.735,0.692
			c-1.254,0.302-2.793,0.43-3.622-0.557c-0.558-0.664-0.558-1.732,0.001-2.396c0.662-0.787,1.815-0.889,2.843-0.932
			c0.678-0.029,1.375-0.055,2.017,0.167c0.642,0.221,1.225,0.75,1.303,1.424C488.588,391.378,488.213,391.987,487.708,392.358z
			 M500,399.431v6.39c-4.442,1.664-9.13,3.343-13.702,2.235c-5.55-1.345-9.809-7.344-9.133-13.015
			C482.877,401.018,492.478,402.773,500,399.431z"/>
		<path style="clip-path:url(#SVGID_00000036952985096240813820000010541872210254148789_);fill:#3A5D71;" d="M0,500h226.774
			c-0.319-0.068-0.632-0.143-0.951-0.21c-0.736-6.495-2.107-12.917-4.109-19.139c-1.863,5.761-2.689,11.847-2.486,17.898
			c-2.265-0.366-4.534-0.653-6.796-0.84l-3.569-5.826c0.085,1.888,0.284,3.768,0.546,5.639c-0.902-0.033-1.801-0.05-2.699-0.041
			c-0.123-0.693-0.335-1.368-0.649-2.006c-0.722,0.57-1.127,1.291-1.4,2.074c-0.275,0.014-0.551,0.025-0.825,0.043
			c0.471-1.221,0.82-2.453,0.887-3.604c0.142-2.461-1.245-4.946-3.413-6.117c0.316,2.975,0.005,6.016-0.907,8.866
			c-0.151,0.471-0.395,0.979-0.731,1.333c-0.491,0.08-0.98,0.175-1.468,0.273c-0.391-0.25-0.643-0.742-0.666-1.222
			c-0.031-0.646,0.249-1.264,0.542-1.841c0.844-1.661,1.864-3.296,2.112-5.143c0.436-3.244-1.993-6.613-5.209-7.224
			c1.016,2.867,1.146,6.041,0.368,8.981c-0.151,0.572-0.435,1.227-1.017,1.332c-0.673,0.122-1.221-0.647-1.189-1.331
			c0.033-0.683,0.432-1.284,0.74-1.895c0.783-1.556,0.967-3.55-0.04-4.971c-1.197-1.69-3.532-1.997-5.591-2.227
			c-2.058-0.23-4.381-0.228-5.334-2.067c0.355,1.928-0.126,3.995-1.295,5.568c-0.636,0.855-1.491,1.626-1.694,2.672
			c-0.242,1.245,0.565,2.503,1.633,3.186c1.068,0.684,2.353,0.917,3.6,1.145c1.247,0.228,2.533,0.481,3.581,1.193
			c0.66,0.449,1.229,1.343,0.78,2.002c-0.316,0.464-0.965,0.535-1.526,0.514c-4.397-0.165-8.465-3.584-9.384-7.887
			c-1.334,1.681-1.52,4.175-0.669,6.164c-3.044-0.472-6.152-0.622-9.272-0.48c-1.234-1.296-2.541-2.521-3.912-3.67
			c0.341-0.138,0.688-0.261,1.025-0.408c-0.876-0.295-1.754-0.589-2.634-0.88c-3.235-2.489-6.781-4.582-10.524-6.236
			c4.844,0.532,9.769,0.325,14.542-0.661c-8.728-5.1-19.594-6.392-29.275-3.484c2.209-2.458,4.535-4.809,6.971-7.04
			c7.125,2.893,15.623,2.177,22.144-1.906c-7.133-1.65-14.745-1.145-21.606,1.408c1.654-1.493,3.353-2.935,5.102-4.315
			c7.035-2.002,10.973-8.426,14.908-14.593c-8.052,5.137-15.477,11.242-22.114,18.108c3.841-5.966,5.759-13.157,5.368-20.244
			c-1.674,1.091-2.624,2.989-3.351,4.85c-1.978,5.067-2.86,10.555-2.581,15.987c-2.005,2.102-3.936,4.274-5.789,6.512
			c2.645-9.924,3.509-20.32,2.486-30.539c-6.318,9.012-7.553,21.325-3.237,31.44c-0.058,0.072-0.114,0.145-0.172,0.217
			c-1.179-0.1-2.36-0.146-3.542-0.163c-0.053-1.094-0.102-2.188-0.177-3.28c-0.152,0.22-0.295,0.447-0.445,0.668
			c0.849-8.399-0.398-17.014-3.772-24.757c-2.963,9.276-3.739,18.502-2.398,27.736c-0.81,0.104-1.616,0.238-2.42,0.385
			c-0.338-1.235-0.705-2.462-1.122-3.666c-2.416-6.979-5.947-13.508-9.034-20.218c0.113,7.935,1.306,15.848,3.495,23.475
			c-0.863-0.208-1.731-0.397-2.609-0.558c-1.856-3.354-3.861-6.627-5.805-9.935c1.494-0.555,2.936-1.249,4.289-2.096
			c-1.967-0.455-3.971-0.73-5.984-0.859c-0.3-0.532-0.61-1.058-0.902-1.594c0.123,0.526,0.261,1.048,0.39,1.572
			c-5.123-0.26-10.3,0.5-15.109,2.289c1.654-1.493,3.353-2.935,5.102-4.315c7.035-2.002,10.973-8.426,14.908-14.593
			c-8.052,5.137-15.477,11.242-22.114,18.109c3.842-5.967,5.759-13.157,5.368-20.244c-1.674,1.091-2.624,2.989-3.351,4.85
			c-1.978,5.067-2.86,10.555-2.581,15.987c-1.1,1.153-2.172,2.331-3.226,3.525c-0.618,0.005-1.237,0.028-1.854,0.066
			c2.072-9.033,2.7-18.396,1.777-27.618c-5.597,7.984-7.196,18.555-4.489,27.897c-1.022,0.145-2.036,0.338-3.04,0.574
			c0.766-8.268-0.497-16.729-3.815-24.345c-2.834,8.87-3.676,17.695-2.572,26.525c-0.801,0.365-1.59,0.757-2.359,1.184
			c-0.309-1.095-0.638-2.184-1.009-3.254c-2.416-6.979-5.947-13.509-9.034-20.218c0.102,7.189,1.087,14.361,2.898,21.317
			c-1.346-1.026-2.826-1.876-4.388-2.549c-2.024-3.436-4.114-6.837-6.026-10.336c0.718,3.083,1.559,6.136,2.492,9.16
			c-2.188-0.528-4.451-0.714-6.686-0.552c-0.006-0.007-0.012-0.015-0.018-0.022c0.967-0.273,1.777-0.796,2.268-1.726
			c0.355-0.674,0.152-1.503-0.146-2.204c-1.651-3.889-5.657-6.147-9.41-8.086c0.84,0.434,3.457-0.562,4.318-0.818
			c1.477-0.439,3.581-0.675,4.5-2.073c0.751-1.143,0.559-2.609-0.507-3.421c-3.587-2.731-9.001-4.23-13.381-4.954
			c1.313,0.217,3.36-0.547,4.631-0.879c4.164-1.087,8.743-3.074,11.225-6.772c0.441-0.657,0.817-1.41,0.768-2.2
			c-0.075-1.189-1.148-1.702-2.205-1.783c-2.659-0.204-5.393-0.035-8,0.534c0.813-1.219,2.272-1.87,3.293-2.896
			c1.011-1.016,1.797-2.237,2.438-3.514c1.275-2.541,1.998-5.311,2.967-7.973c0.351-0.963,0.596-2.27-0.271-2.816
			c-0.448-0.283-1.024-0.219-1.549-0.142c-3.514,0.519-6.876,1.251-9.969,3.084c-1.239,0.734-2.403,1.596-3.463,2.572
			c-0.193,0.177-2.807,2.342-2.821,2.196c-0.191-1.973-0.38-3.784-1.042-5.652c-0.395-1.115-1.029-2.34-2.184-2.597
			c-0.793-0.177-1.62,0.176-2.255,0.684c-1.296,1.037-1.971,2.643-2.596,4.18c-0.739,1.818-1.23,3.848-1.473,5.795
			c-0.875-3.127-1.972-6.191-3.278-9.163c-0.423-0.962-0.895-1.95-1.711-2.612c-3.655-2.963-5.093,4.246-5.621,6.407
			c-0.839,3.432-1.16,7-0.943,10.527c-1.099-3.199-2.856-6.167-5.12-8.679c3.736-1.483,6.895-4.432,8.112-8.239
			C9.13,417.727,4.478,418.018,0,417.269v8.311c0.075-0.002,0.15,0.006,0.225,0.003c0.014,0.171,0.031,0.343,0.049,0.513
			c0.466,4.355,1.442,8.534,3.136,12.573c-1.034-1.275-2.183-2.453-3.41-3.543V500z M87.342,471.747
			c0.985-0.98,1.979-1.951,3.003-2.889c5.217,2.118,11.166,2.293,16.54,0.637c0.762,2.767,1.609,5.509,2.542,8.223
			c-1.92-0.874-3.916-1.574-5.958-2.108c-0.679-0.866-1.377-1.717-2.098-2.549c0.213,0.729,0.434,1.462,0.649,2.194
			c-0.965-0.212-1.939-0.377-2.917-0.512c-2.229-1.035-4.568-1.833-6.973-2.348C90.552,472.057,88.951,471.848,87.342,471.747z
			 M46.739,469.541c0.039-0.01,0.077-0.02,0.115-0.031c0.002,0.007,0.004,0.014,0.006,0.021
			C46.819,469.535,46.779,469.538,46.739,469.541z M236.259,500c0.175-0.199,0.346-0.399,0.527-0.596
			c0.008,0.199,0.004,0.397,0.007,0.596H236.259z M0,368.285v-1.593c0.457,0.113,0.91,0.245,1.354,0.414
			C0.888,367.482,0.443,367.882,0,368.285z M1.069,371.936c-0.377,0.16-0.731,0.357-1.069,0.575v21.036
			c2.48-0.06,4.883,0.834,7.2,1.737c2.378,0.927,4.826,1.885,7.378,1.842c2.552-0.043,5.262-1.347,6.163-3.734
			c0.757-2.007,0.106-4.23-0.08-6.367c-0.342-3.93,1.017-7.98,3.661-10.908c-3.575,2.146-7.552-0.312-11.322-2.091
			C9.23,372.245,4.905,370.304,1.069,371.936z M11.485,390.755c0.079-0.674,0.662-1.203,1.303-1.424
			c0.642-0.221,1.339-0.195,2.017-0.167c1.028,0.043,2.181,0.146,2.843,0.932c0.559,0.664,0.559,1.732,0.001,2.396
			c-0.829,0.988-2.368,0.86-3.622,0.557c-0.609-0.147-1.229-0.322-1.735-0.692C11.787,391.987,11.412,391.378,11.485,390.755z
			 M22.835,395.042c0.675,5.67-3.583,11.67-9.133,13.015c-4.571,1.108-9.26-0.571-13.702-2.235v-6.39
			C7.522,402.773,17.123,401.018,22.835,395.042z"/>
		<g style="clip-path:url(#SVGID_00000036952985096240813820000010541872210254148789_);">
			<path style="fill:#3A5D71;" d="M523.547,41.252c9.471-1.799,19.165-2.416,28.797-1.876c0.037-6.11,0.074-12.22,0.111-18.331
				c3.793,6.511,7.586,13.022,11.378,19.533c13.311,2.039,26.275,6.306,38.105,12.75C584.684,28.489,558.446,8.859,528.54,4.361
				c-7.917-1.191-16.054-1.158-24.025,0.001c4.84-4.087,9.848-7.97,15.029-11.608c-3.261-3.568-6.522-7.137-9.783-10.705
				c5.877,1.818,11.753,3.636,17.63,5.454c12.667-8.072,26.204-14.787,40.415-19.89c-27.63-12.663-61.188-11.528-87.9,2.972
				c-11.401,6.189-21.433,14.756-29.54,24.875c-0.78-0.132-1.559-0.251-2.327-0.357c-7.781-1.078-15.969-2.113-23.278,0.762
				c-7.661,3.013-12.908,9.693-17.281,16.863c-15.177-0.405-30.444,2.583-44.208,9.005c-27.542,12.853-48.41,39.158-54.66,68.902
				c12.554-8.391,26.003-15.28,40.025-20.665c2.033-5.806,4.066-11.611,6.099-17.417c0.93,4.744,1.859,9.487,2.789,14.231
				c6.367-2.122,12.839-3.921,19.381-5.435c-5.675,5.72-10.542,12.245-14.294,19.321c-14.168,26.718-13.989,59.486-4.28,88.127
				c1.854-13.342,6.133-26.302,12.409-38.217c-2.979-6.921-5.958-13.842-8.938-20.764c4.934,3.604,9.869,7.208,14.803,10.812
				c5.293-8.065,11.554-15.492,18.633-22.036c-2.264-4.524-5.01-8.99-4.746-13.919c3.491,2.989,6.983,5.977,10.474,8.966
				c0.451-0.365,0.902-0.729,1.358-1.087c-0.995-4.37-1.991-8.741-2.986-13.111c2.996,2.304,5.888,4.812,8.614,7.489
				c-0.01,0.347-0.021,0.695-0.028,1.038c-0.491,24.283,1.738,48.619,6.632,72.409c7.335-11.97,14.67-23.939,22.005-35.909
				c1.744-2.846,3.495-5.712,5.152-8.625c12.224,17.149,25.955,32.418,39.809,45.463c1.227-8.748,2.185-18.063,2.838-27.72
				c-3.783-2.833-7.567-5.666-11.351-8.499c5.457,1.652,8.744,2.266,11.717,2.298c0.144-2.718,0.256-5.463,0.35-8.221
				c12.859,35.43,21.119,74.297,25.721,114.544c-8.838-14.285-21.95-26.071-37.886-31.088c-4.959-1.561-10.182-2.36-15.411-2.419
				c3.516-2.134,7.12-4.12,10.81-5.932c-1.732-2.617-3.464-5.235-5.197-7.852c3.586,1.758,7.173,3.516,10.759,5.275
				c8.939-3.902,18.299-6.846,27.929-8.687c-16.448-10.906-38.088-13.559-56.683-6.949c-7.935,2.821-15.226,7.311-21.445,12.984
				c-0.49-0.164-0.981-0.32-1.467-0.467c-4.882-1.475-10.03-2.964-15.009-1.856c-5.218,1.161-9.256,4.917-12.784,9.077
				c-9.695-1.788-19.789-1.411-29.264,1.323c-18.962,5.47-34.998,20.241-42.003,38.691c8.898-4.118,18.219-7.182,27.756-9.223
				c1.889-3.519,3.778-7.039,5.667-10.558c0.119,3.137,0.237,6.273,0.355,9.41c4.298-0.72,8.631-1.222,12.98-1.534
				c-4.216,3.098-7.996,6.793-11.116,10.954c-11.78,15.711-14.966,36.749-11.623,56.099c2.534-8.372,6.584-16.254,11.81-23.264
				c-1.214-4.74-2.427-9.48-3.641-14.219c2.802,2.809,5.604,5.618,8.407,8.426c4.208-4.64,8.972-8.773,14.172-12.258
				c-0.997-3.13-2.308-6.272-1.642-9.406c1.939,2.269,3.877,4.538,5.815,6.806c0.326-0.189,0.652-0.377,0.981-0.561
				c-0.198-2.904-0.396-5.807-0.595-8.711c1.69,1.78,3.293,3.68,4.772,5.672c-0.041,0.221-0.084,0.443-0.123,0.663
				c-2.761,15.527-3.783,31.363-3.04,47.115c5.911-6.939,11.822-13.878,17.732-20.818c1.409-1.654,2.819-3.324,4.178-5.03
				c6.114,12.235,13.377,23.424,20.951,33.189c1.668-5.488,3.221-11.367,4.613-17.495c-2.142-2.198-4.283-4.397-6.425-6.595
				c3.334,1.609,5.38,2.335,7.285,2.654c0.364-1.721,0.703-3.472,1.04-5.224c13.06,67.06,0.43,147.702-20.159,215.188
				c6.723,2.824,5.669,3.709,12.392,6.534c22.865-76.247,30.063-156.049,9.624-232.551c0.584-3.841,1.112-7.712,1.536-11.605
				c-2.845-2.038-5.948-3.782-9.006-5.485c1.67-0.088,3.34-0.175,5.01-0.262c1.896,2.38,4.274,4.429,6.854,6.022
				c5.744,3.548,12.417,5.221,18.97,6.844c8.848,2.192,17.696,4.384,26.544,6.576c-8.581-13.232-18.643-25.502-29.938-36.508
				c-0.16-0.156-0.324-0.312-0.486-0.468c0.041-2.48,0.235-4.958,0.57-7.39c1.532,2.475,3.063,4.95,4.595,7.424
				c0.374-0.043,0.749-0.079,1.124-0.116c0.252-2.973,0.504-5.947,0.757-8.92c2.368,2.159,3.134,5.476,4.149,8.6
				c6.256-0.2,12.537,0.381,18.661,1.697c0.639-3.916,1.279-7.832,1.918-11.747c1.777,4.559,3.554,9.117,5.331,13.676
				c6.889,2.19,13.463,5.347,19.459,9.38c7.518,70.615,3.973,145.175-5.553,212.611c10.904,2.69,9.511,4.289,20.415,6.979
				c16.57-121.473,8.484-244.62-40.899-356.132c-0.029-5.973-0.175-11.985-0.46-17.998c-4.816-2.421-9.952-4.334-15.013-6.193
				c2.52-0.532,5.04-1.064,7.56-1.596c3.452,3.168,7.561,5.717,11.866,7.525c9.587,4.025,20.139,4.976,30.498,5.881
				c13.985,1.221,27.97,2.442,41.955,3.663c-16.216-18.081-34.457-34.345-54.271-48.391c-0.281-0.199-0.567-0.397-0.852-0.595
				c-0.531-3.783-0.827-7.6-0.898-11.379c2.922,3.399,5.844,6.799,8.765,10.198c0.559-0.154,1.121-0.3,1.682-0.445
				c-0.327-4.584-0.654-9.168-0.98-13.752C519.298,31.877,521.256,36.741,523.547,41.252z"/>
			<path style="fill:#3A5D71;" d="M145.263,52.552c2.033,5.806,4.066,11.612,6.099,17.417c14.022,5.384,27.471,12.274,40.025,20.665
				c-6.25-29.744-27.118-56.049-54.66-68.902c-13.763-6.423-29.031-9.41-44.208-9.005c-4.373-7.17-9.62-13.85-17.281-16.863
				c-7.31-2.875-15.498-1.84-23.278-0.762c-0.768,0.106-1.548,0.226-2.327,0.357c-8.107-10.119-18.139-18.686-29.54-24.875
				c-26.712-14.5-60.27-15.634-87.9-2.972c14.211,5.103,27.748,11.819,40.416,19.89c5.877-1.818,11.753-3.636,17.63-5.454
				c-3.261,3.568-6.522,7.137-9.783,10.705C-14.363-3.607-9.354,0.276-4.515,4.363c-7.97-1.159-16.108-1.192-24.025-0.001
				c-29.906,4.497-56.144,24.128-73.397,48.966c11.83-6.444,24.794-10.71,38.105-12.75c3.793-6.511,7.585-13.022,11.378-19.533
				c0.037,6.11,0.074,12.22,0.111,18.331c9.632-0.54,19.326,0.077,28.797,1.876c2.291-4.511,4.248-9.374,8.368-12.093
				c-0.326,4.584-0.653,9.168-0.98,13.752c0.561,0.146,1.123,0.291,1.682,0.445c2.922-3.399,5.844-6.799,8.765-10.198
				c-0.071,3.779-0.367,7.596-0.898,11.379c-0.285,0.198-0.571,0.396-0.852,0.595c-19.814,14.046-38.055,30.31-54.271,48.391
				c13.985-1.221,27.971-2.442,41.956-3.663c10.358-0.904,20.911-1.855,30.498-5.881c4.306-1.808,8.414-4.357,11.866-7.525
				c2.52,0.532,5.04,1.064,7.56,1.596c-5.06,1.859-10.197,3.772-15.013,6.193c-0.285,6.014-0.431,12.026-0.46,17.998
				c-49.383,111.512-57.469,234.66-40.899,356.132c10.904-2.69,9.511-4.289,20.415-6.979
				c-9.526-67.436-13.071-141.996-5.554-212.611c5.996-4.032,12.57-7.189,19.459-9.379c1.777-4.559,3.554-9.117,5.331-13.676
				c0.639,3.916,1.278,7.831,1.918,11.747c6.124-1.317,12.405-1.898,18.661-1.697c1.015-3.124,1.781-6.441,4.149-8.6
				c0.253,2.974,0.505,5.947,0.757,8.92c0.375,0.037,0.75,0.074,1.124,0.116c1.532-2.475,3.063-4.95,4.595-7.424
				c0.335,2.431,0.53,4.909,0.57,7.39c-0.162,0.156-0.326,0.312-0.486,0.468c-11.295,11.006-21.357,23.276-29.938,36.508
				c8.848-2.192,17.696-4.384,26.544-6.576c6.553-1.624,13.227-3.297,18.971-6.844c2.58-1.593,4.958-3.642,6.854-6.022
				c1.67,0.087,3.34,0.175,5.01,0.262c-3.059,1.702-6.161,3.447-9.006,5.485c0.424,3.893,0.951,7.764,1.536,11.605
				c-20.439,76.502-13.241,156.304,9.624,232.551c6.723-2.824,5.669-3.709,12.392-6.534
				c-20.588-67.486-33.219-148.128-20.158-215.188c0.337,1.752,0.675,3.503,1.04,5.224c1.905-0.32,3.951-1.045,7.285-2.654
				c-2.142,2.198-4.284,4.397-6.425,6.595c1.392,6.129,2.945,12.008,4.613,17.495c7.575-9.766,14.837-20.954,20.951-33.189
				c1.359,1.706,2.77,3.376,4.178,5.03c5.911,6.939,11.822,13.878,17.732,20.818c0.743-15.753-0.279-31.588-3.04-47.115
				c-0.039-0.22-0.081-0.442-0.122-0.663c1.479-1.992,3.081-3.892,4.771-5.672c-0.198,2.904-0.396,5.807-0.595,8.711
				c0.329,0.184,0.655,0.372,0.981,0.561c1.938-2.269,3.877-4.538,5.815-6.806c0.666,3.135-0.646,6.276-1.642,9.406
				c5.2,3.484,9.964,7.618,14.172,12.258c2.802-2.809,5.604-5.618,8.406-8.426c-1.214,4.74-2.428,9.48-3.641,14.219
				c5.226,7.01,9.276,14.892,11.81,23.264c3.343-19.35,0.157-40.388-11.623-56.099c-3.12-4.161-6.899-7.856-11.115-10.954
				c4.349,0.312,8.682,0.815,12.98,1.534c0.118-3.136,0.237-6.273,0.355-9.41c1.889,3.519,3.778,7.039,5.667,10.558
				c9.537,2.041,18.858,5.106,27.756,9.223c-7.006-18.45-23.042-33.221-42.003-38.691c-9.476-2.733-19.57-3.111-29.264-1.323
				c-3.527-4.159-7.566-7.915-12.784-9.077c-4.979-1.108-10.126,0.381-15.009,1.856c-0.485,0.147-0.976,0.303-1.467,0.467
				c-6.219-5.673-13.509-10.163-21.444-12.984c-18.595-6.61-40.236-3.957-56.683,6.949c9.63,1.842,18.99,4.786,27.929,8.687
				c3.586-1.758,7.173-3.516,10.759-5.275c-1.732,2.618-3.465,5.235-5.197,7.852c3.69,1.812,7.294,3.798,10.81,5.932
				c-5.229,0.059-10.452,0.858-15.411,2.419C11.15,207.636-1.962,219.422-10.8,233.707c4.602-40.247,12.862-79.114,25.721-114.544
				c0.094,2.758,0.205,5.504,0.35,8.221c2.974-0.031,6.261-0.646,11.718-2.298c-3.784,2.833-7.567,5.666-11.351,8.499
				c0.653,9.657,1.611,18.972,2.838,27.72c13.855-13.045,27.585-28.314,39.809-45.463c1.657,2.913,3.408,5.779,5.152,8.625
				c7.335,11.97,14.67,23.94,22.005,35.909c4.894-23.79,7.123-48.126,6.632-72.409c-0.007-0.344-0.018-0.692-0.028-1.038
				c2.726-2.677,5.618-5.185,8.614-7.489c-0.995,4.37-1.991,8.741-2.986,13.111c0.456,0.358,0.908,0.723,1.358,1.087
				c3.491-2.989,6.982-5.977,10.474-8.966c0.264,4.928-2.482,9.394-4.746,13.919c7.079,6.544,13.339,13.971,18.633,22.036
				c4.935-3.604,9.869-7.208,14.804-10.812c-2.979,6.921-5.959,13.842-8.938,20.764c6.276,11.914,10.555,24.874,12.409,38.217
				c9.709-28.641,9.888-61.409-4.28-88.127c-3.753-7.076-8.62-13.601-14.294-19.321c6.542,1.514,13.015,3.314,19.381,5.435
				C143.404,62.04,144.333,57.296,145.263,52.552z"/>
		</g>
	</g>
</g>
<g id="DESIGNED_BY_FREEPIK">
	<g id="XMLID_107_">
		<path id="XMLID_182_" style="fill:#94696C;" d="M181.096,469.127c-0.246,0-0.434,0.085-0.567,0.255
			c-0.133,0.17-0.199,0.421-0.199,0.754v2.391c-0.305-0.331-0.617-0.578-0.937-0.739c-0.321-0.159-0.715-0.24-1.181-0.24
			c-0.807,0-1.458,0.283-1.952,0.848c-0.494,0.566-0.742,1.356-0.742,2.369c0,0.478,0.063,0.923,0.187,1.335
			c0.125,0.412,0.307,0.77,0.549,1.074c0.241,0.305,0.527,0.539,0.857,0.704c0.33,0.164,0.689,0.245,1.077,0.245
			c0.293,0,0.563-0.039,0.809-0.122c0.248-0.081,0.477-0.199,0.689-0.356c0.212-0.155,0.426-0.359,0.644-0.608v0.161
			c0,0.297,0.072,0.525,0.216,0.686c0.145,0.16,0.328,0.239,0.549,0.239c0.226,0,0.41-0.077,0.552-0.231
			c0.143-0.155,0.214-0.386,0.214-0.694v-7.146c0-0.305-0.067-0.534-0.199-0.691C181.53,469.205,181.342,469.127,181.096,469.127z
			 M180.031,475.967c-0.14,0.306-0.328,0.534-0.563,0.681c-0.236,0.149-0.496,0.223-0.781,0.223c-0.281,0-0.539-0.079-0.777-0.236
			c-0.237-0.156-0.424-0.388-0.561-0.697c-0.136-0.309-0.204-0.682-0.204-1.121c0-0.416,0.064-0.78,0.193-1.095
			c0.128-0.315,0.309-0.556,0.543-0.724c0.233-0.168,0.498-0.252,0.795-0.252c0.285,0,0.547,0.082,0.786,0.245
			c0.239,0.165,0.429,0.402,0.569,0.712c0.141,0.311,0.21,0.682,0.21,1.114C180.242,475.276,180.172,475.66,180.031,475.967z"/>
		<path id="XMLID_179_" style="fill:#94696C;" d="M188.46,475.047c0.233-0.121,0.35-0.385,0.35-0.793
			c0-0.438-0.113-0.87-0.339-1.294c-0.225-0.423-0.564-0.768-1.018-1.035c-0.453-0.268-0.996-0.4-1.628-0.4
			c-0.487,0-0.93,0.077-1.329,0.234c-0.4,0.157-0.737,0.381-1.009,0.674c-0.273,0.293-0.48,0.644-0.623,1.054
			c-0.143,0.409-0.214,0.853-0.214,1.332c0,1.016,0.289,1.822,0.866,2.415c0.577,0.593,1.387,0.89,2.427,0.89
			c0.455,0,0.858-0.059,1.207-0.178c0.351-0.118,0.641-0.267,0.873-0.448c0.231-0.179,0.404-0.367,0.519-0.564
			c0.115-0.196,0.172-0.367,0.172-0.513c0-0.167-0.052-0.294-0.155-0.386c-0.103-0.091-0.237-0.137-0.403-0.137
			c-0.154,0-0.273,0.036-0.356,0.107c-0.203,0.19-0.366,0.34-0.492,0.452c-0.126,0.111-0.265,0.215-0.415,0.312
			c-0.15,0.098-0.305,0.168-0.466,0.214c-0.16,0.046-0.337,0.068-0.531,0.068c-0.289,0-0.553-0.071-0.792-0.214
			c-0.239-0.142-0.432-0.354-0.576-0.635c-0.145-0.281-0.219-0.605-0.222-0.973h3.168
			C187.898,475.228,188.227,475.167,188.46,475.047z M184.306,474.308c0.056-0.546,0.212-0.959,0.472-1.238
			c0.259-0.279,0.59-0.418,0.994-0.418c0.424,0,0.764,0.137,1.024,0.413c0.259,0.275,0.409,0.689,0.448,1.243H184.306z"/>
		<path id="XMLID_178_" style="fill:#94696C;" d="M193.886,474.61c-0.319-0.17-0.729-0.316-1.231-0.439
			c-0.425-0.103-0.756-0.19-0.997-0.26c-0.242-0.071-0.434-0.161-0.577-0.27c-0.142-0.109-0.213-0.248-0.213-0.418
			c0-0.186,0.096-0.341,0.291-0.465c0.194-0.126,0.437-0.187,0.73-0.187c0.285,0,0.511,0.047,0.677,0.142
			c0.166,0.095,0.31,0.222,0.433,0.38c0.151,0.19,0.284,0.332,0.401,0.426c0.116,0.096,0.258,0.143,0.424,0.143
			c0.231,0,0.408-0.06,0.532-0.178c0.124-0.119,0.186-0.271,0.186-0.457c0-0.171-0.058-0.345-0.175-0.523
			c-0.116-0.178-0.286-0.34-0.51-0.486c-0.223-0.147-0.502-0.264-0.837-0.35c-0.333-0.088-0.71-0.131-1.13-0.131
			c-0.535,0-0.99,0.086-1.367,0.259c-0.378,0.172-0.665,0.403-0.859,0.691c-0.194,0.289-0.291,0.596-0.291,0.92
			c0,0.364,0.105,0.671,0.315,0.92c0.21,0.249,0.489,0.45,0.84,0.602c0.35,0.153,0.804,0.298,1.362,0.436
			c0.494,0.119,0.849,0.244,1.065,0.375c0.216,0.131,0.323,0.337,0.323,0.622c0,0.186-0.104,0.351-0.311,0.496
			c-0.208,0.144-0.474,0.217-0.798,0.217c-0.4,0-0.715-0.072-0.947-0.214c-0.231-0.143-0.431-0.358-0.597-0.647
			c-0.082-0.149-0.17-0.267-0.261-0.35c-0.091-0.083-0.221-0.125-0.391-0.125c-0.194,0-0.355,0.064-0.481,0.19
			c-0.128,0.126-0.19,0.278-0.19,0.456c0,0.27,0.099,0.537,0.296,0.805c0.198,0.266,0.505,0.489,0.92,0.666
			c0.415,0.178,0.914,0.267,1.495,0.267c0.61,0,1.127-0.082,1.552-0.245c0.425-0.165,0.747-0.406,0.964-0.725
			c0.218-0.319,0.326-0.702,0.326-1.149c0-0.297-0.082-0.56-0.246-0.791C194.446,474.981,194.204,474.779,193.886,474.61z"/>
		<path id="XMLID_177_" style="fill:#94696C;" d="M196.512,469.198c-0.217,0-0.409,0.074-0.573,0.223
			c-0.164,0.149-0.246,0.337-0.246,0.567c0,0.254,0.08,0.45,0.24,0.588c0.16,0.138,0.353,0.208,0.578,0.208
			c0.217,0,0.405-0.071,0.563-0.211c0.158-0.14,0.238-0.335,0.238-0.584c0-0.258-0.081-0.453-0.243-0.588
			C196.907,469.265,196.722,469.198,196.512,469.198z"/>
		<path id="XMLID_176_" style="fill:#94696C;" d="M196.493,471.536c-0.237,0-0.43,0.081-0.578,0.243
			c-0.149,0.162-0.222,0.404-0.222,0.724v4.635c0,0.316,0.073,0.56,0.222,0.73c0.148,0.171,0.341,0.255,0.578,0.255
			c0.238,0,0.433-0.083,0.588-0.249c0.154-0.166,0.231-0.411,0.231-0.736v-4.682c0-0.289-0.077-0.514-0.231-0.677
			C196.927,471.617,196.732,471.536,196.493,471.536z"/>
		<path id="XMLID_173_" style="fill:#94696C;" d="M203.632,471.536c-0.217,0-0.395,0.077-0.535,0.231
			c-0.138,0.155-0.207,0.372-0.207,0.653v0.22c-0.289-0.376-0.602-0.652-0.937-0.829c-0.337-0.175-0.735-0.263-1.193-0.263
			c-0.384,0-0.736,0.068-1.056,0.204c-0.32,0.137-0.603,0.339-0.849,0.608c-0.245,0.269-0.433,0.599-0.566,0.992
			c-0.133,0.391-0.199,0.831-0.199,1.317c0,0.653,0.109,1.228,0.326,1.727c0.217,0.499,0.529,0.886,0.934,1.163
			c0.406,0.277,0.88,0.416,1.422,0.416c0.45,0,0.839-0.092,1.165-0.273c0.327-0.182,0.614-0.447,0.864-0.796
			c-0.008,0.531-0.02,0.916-0.035,1.155c-0.016,0.24-0.07,0.465-0.164,0.674c-0.093,0.21-0.255,0.373-0.486,0.489
			c-0.231,0.117-0.557,0.176-0.977,0.176c-0.205,0-0.388-0.02-0.545-0.056c-0.159-0.038-0.294-0.095-0.406-0.172
			c-0.112-0.077-0.216-0.17-0.309-0.28c-0.093-0.109-0.183-0.217-0.27-0.323c-0.178-0.21-0.386-0.315-0.624-0.315
			c-0.189,0-0.352,0.062-0.486,0.188c-0.135,0.123-0.202,0.286-0.202,0.483c0,0.261,0.119,0.515,0.356,0.763
			c0.238,0.247,0.576,0.448,1.014,0.605c0.439,0.156,0.938,0.234,1.496,0.234c0.609,0,1.119-0.061,1.528-0.184
			c0.409-0.122,0.741-0.311,0.994-0.564c0.253-0.253,0.437-0.573,0.552-0.96c0.115-0.388,0.173-0.852,0.173-1.39v-4.705
			c0-0.384-0.051-0.678-0.155-0.882C204.152,471.638,203.945,471.536,203.632,471.536z M202.606,475.901
			c-0.151,0.29-0.345,0.508-0.586,0.653c-0.239,0.144-0.493,0.217-0.761,0.217c-0.455,0-0.826-0.168-1.113-0.505
			c-0.287-0.336-0.43-0.833-0.43-1.489c0-0.649,0.139-1.15,0.418-1.501c0.279-0.352,0.649-0.528,1.113-0.528
			c0.475,0,0.857,0.184,1.148,0.552c0.291,0.367,0.436,0.882,0.436,1.543C202.831,475.257,202.756,475.61,202.606,475.901z"/>
		<path id="XMLID_172_" style="fill:#94696C;" d="M210.983,472.603c-0.165-0.339-0.417-0.602-0.753-0.788
			c-0.337-0.186-0.718-0.279-1.146-0.279c-0.439,0-0.827,0.088-1.165,0.264c-0.339,0.176-0.65,0.452-0.935,0.828v-0.196
			c0-0.193-0.034-0.358-0.104-0.493c-0.07-0.134-0.162-0.234-0.276-0.302c-0.115-0.068-0.244-0.101-0.387-0.101
			c-0.233,0-0.417,0.076-0.552,0.228c-0.134,0.153-0.201,0.383-0.201,0.692v4.682c0,0.316,0.076,0.56,0.226,0.73
			c0.15,0.171,0.342,0.255,0.576,0.255c0.241,0,0.438-0.082,0.59-0.245c0.152-0.165,0.228-0.411,0.228-0.739v-2.03
			c0-0.661,0.04-1.111,0.119-1.353c0.11-0.3,0.284-0.537,0.522-0.71c0.237-0.172,0.5-0.258,0.788-0.258
			c0.444,0,0.74,0.142,0.888,0.425c0.148,0.283,0.223,0.691,0.223,1.225v2.701c0,0.316,0.075,0.56,0.226,0.73
			c0.15,0.171,0.345,0.255,0.587,0.255c0.238,0,0.431-0.083,0.578-0.249c0.149-0.166,0.223-0.411,0.223-0.736v-3.015
			c0-0.356-0.016-0.649-0.048-0.879C211.16,473.016,211.091,472.802,210.983,472.603z"/>
		<path id="XMLID_169_" style="fill:#94696C;" d="M217.826,475.047c0.234-0.121,0.35-0.385,0.35-0.793
			c0-0.438-0.113-0.87-0.338-1.294c-0.226-0.423-0.565-0.768-1.019-1.035c-0.453-0.268-0.995-0.4-1.628-0.4
			c-0.487,0-0.93,0.077-1.329,0.234c-0.4,0.157-0.736,0.381-1.009,0.674c-0.273,0.293-0.481,0.644-0.624,1.054
			c-0.142,0.409-0.214,0.853-0.214,1.332c0,1.016,0.289,1.822,0.867,2.415c0.578,0.593,1.387,0.89,2.427,0.89
			c0.455,0,0.858-0.059,1.208-0.178c0.35-0.118,0.64-0.267,0.871-0.448c0.232-0.179,0.405-0.367,0.52-0.564
			c0.115-0.196,0.172-0.367,0.172-0.513c0-0.167-0.051-0.294-0.154-0.386c-0.103-0.091-0.238-0.137-0.404-0.137
			c-0.154,0-0.273,0.036-0.356,0.107c-0.201,0.19-0.366,0.34-0.492,0.452c-0.128,0.111-0.266,0.215-0.415,0.312
			c-0.151,0.098-0.306,0.168-0.466,0.214c-0.161,0.046-0.338,0.068-0.532,0.068c-0.289,0-0.553-0.071-0.792-0.214
			c-0.239-0.142-0.431-0.354-0.575-0.635c-0.145-0.281-0.218-0.605-0.223-0.973h3.168
			C217.264,475.228,217.592,475.167,217.826,475.047z M213.672,474.308c0.056-0.546,0.212-0.959,0.471-1.238
			c0.259-0.279,0.591-0.418,0.995-0.418c0.424,0,0.764,0.137,1.024,0.413c0.259,0.275,0.409,0.689,0.448,1.243H213.672z"/>
		<path id="XMLID_166_" style="fill:#94696C;" d="M224.21,469.127c-0.245,0-0.434,0.085-0.567,0.255s-0.2,0.421-0.2,0.754v2.391
			c-0.304-0.331-0.616-0.578-0.937-0.739c-0.32-0.159-0.714-0.24-1.181-0.24c-0.807,0-1.458,0.283-1.952,0.848
			c-0.495,0.566-0.741,1.356-0.741,2.369c0,0.478,0.062,0.923,0.187,1.335c0.124,0.412,0.307,0.77,0.549,1.074
			c0.241,0.305,0.527,0.539,0.857,0.704c0.33,0.164,0.689,0.245,1.077,0.245c0.293,0,0.563-0.039,0.81-0.122
			c0.247-0.081,0.476-0.199,0.688-0.356c0.211-0.155,0.426-0.359,0.643-0.608v0.161c0,0.297,0.073,0.525,0.217,0.686
			c0.145,0.16,0.328,0.239,0.549,0.239c0.226,0,0.41-0.077,0.552-0.231c0.143-0.155,0.214-0.386,0.214-0.694v-7.146
			c0-0.305-0.066-0.534-0.199-0.691C224.644,469.205,224.456,469.127,224.21,469.127z M223.145,475.967
			c-0.14,0.306-0.328,0.534-0.564,0.681c-0.236,0.149-0.496,0.223-0.781,0.223c-0.281,0-0.539-0.079-0.776-0.236
			c-0.238-0.156-0.425-0.388-0.561-0.697c-0.137-0.309-0.205-0.682-0.205-1.121c0-0.416,0.064-0.78,0.193-1.095
			c0.129-0.315,0.31-0.556,0.543-0.724c0.233-0.168,0.499-0.252,0.795-0.252c0.285,0,0.547,0.082,0.786,0.245
			c0.239,0.165,0.43,0.402,0.57,0.712c0.14,0.311,0.211,0.682,0.211,1.114C223.355,475.276,223.285,475.66,223.145,475.967z"/>
		<path id="XMLID_163_" style="fill:#94696C;" d="M234.532,473.04c-0.224-0.484-0.538-0.854-0.943-1.111
			c-0.406-0.254-0.877-0.382-1.416-0.382c-0.467,0-0.859,0.084-1.175,0.252c-0.317,0.168-0.627,0.411-0.932,0.727v-2.474
			c0-0.297-0.068-0.525-0.202-0.686c-0.134-0.16-0.326-0.24-0.575-0.24c-0.237,0-0.423,0.084-0.555,0.252
			c-0.132,0.168-0.198,0.416-0.198,0.744v7.075c0,0.304,0.068,0.534,0.205,0.692c0.136,0.156,0.319,0.233,0.549,0.233
			c0.226,0,0.412-0.077,0.558-0.233c0.146-0.158,0.22-0.388,0.22-0.692v-0.161c0.177,0.206,0.322,0.361,0.43,0.464
			c0.109,0.102,0.241,0.203,0.395,0.299c0.154,0.098,0.341,0.176,0.561,0.234c0.22,0.06,0.454,0.089,0.703,0.089
			c0.407,0,0.78-0.082,1.118-0.245c0.338-0.165,0.626-0.398,0.864-0.698c0.237-0.301,0.418-0.656,0.543-1.065
			c0.125-0.41,0.187-0.859,0.187-1.35C234.867,474.1,234.755,473.524,234.532,473.04z M232.799,476.34
			c-0.295,0.354-0.646,0.531-1.053,0.531c-0.479,0-0.866-0.174-1.16-0.52c-0.295-0.346-0.442-0.841-0.442-1.486
			c0-0.439,0.069-0.819,0.208-1.137c0.138-0.319,0.328-0.562,0.57-0.73c0.24-0.168,0.516-0.252,0.825-0.252
			c0.3,0,0.564,0.084,0.789,0.252c0.225,0.168,0.399,0.406,0.522,0.715c0.123,0.308,0.184,0.677,0.184,1.104
			C233.241,475.478,233.093,475.986,232.799,476.34z"/>
		<path id="XMLID_162_" style="fill:#94696C;" d="M240.531,471.634c-0.112-0.066-0.229-0.098-0.353-0.098
			c-0.171,0-0.303,0.03-0.395,0.09c-0.093,0.059-0.181,0.173-0.264,0.344c-0.083,0.17-0.176,0.406-0.279,0.706l-1.3,3.709
			l-1.371-3.988c-0.091-0.277-0.195-0.489-0.314-0.638c-0.119-0.148-0.295-0.223-0.528-0.223c-0.135,0-0.264,0.035-0.389,0.107
			c-0.124,0.071-0.222,0.166-0.294,0.285c-0.071,0.118-0.107,0.246-0.107,0.385c0,0.131,0.062,0.341,0.184,0.629l1.994,5.021
			l-0.148,0.362c-0.111,0.265-0.209,0.466-0.294,0.602c-0.085,0.137-0.181,0.233-0.287,0.288c-0.107,0.056-0.254,0.083-0.44,0.083
			c-0.074,0-0.164-0.012-0.266-0.035c-0.083-0.024-0.168-0.037-0.256-0.037c-0.221,0-0.388,0.051-0.5,0.152
			c-0.113,0.1-0.17,0.244-0.17,0.43c0,0.273,0.118,0.461,0.356,0.565c0.237,0.103,0.593,0.154,1.068,0.154
			c0.487,0,0.873-0.074,1.161-0.223c0.287-0.148,0.517-0.361,0.691-0.638c0.174-0.277,0.353-0.658,0.535-1.145l2.113-5.531
			c0.051-0.141,0.095-0.283,0.13-0.421c0.037-0.139,0.061-0.246,0.078-0.321c0-0.123-0.032-0.239-0.093-0.35
			C240.731,471.787,240.643,471.699,240.531,471.634z"/>
		<path id="XMLID_161_" style="fill:#94696C;" d="M262.565,470.55c0.087-0.171,0.273-0.259,0.565-0.259
			c0.107,0,0.242,0.014,0.389,0.035c0.156,0.026,0.267,0.037,0.33,0.037c0.134,0,0.253-0.054,0.349-0.16
			c0.1-0.107,0.15-0.236,0.15-0.384c0-0.467-0.471-0.696-1.421-0.696c-0.533,0-0.953,0.068-1.259,0.204
			c-0.307,0.137-0.527,0.354-0.654,0.653c-0.129,0.3-0.192,0.702-0.192,1.21v0.486h-0.387c-0.543,0-0.814,0.192-0.814,0.582
			c0,0.174,0.066,0.317,0.196,0.424c0.132,0.111,0.315,0.163,0.558,0.163h0.447v4.293c0,0.32,0.074,0.563,0.227,0.73
			c0.155,0.171,0.344,0.254,0.574,0.254c0.243,0,0.438-0.083,0.589-0.254c0.155-0.167,0.231-0.41,0.231-0.73v-4.293h0.395
			c0.29,0,0.516-0.035,0.68-0.107c0.166-0.072,0.245-0.241,0.245-0.503c0-0.374-0.306-0.56-0.925-0.56h-0.395v-0.386
			C262.444,470.968,262.486,470.722,262.565,470.55z"/>
		<path id="XMLID_135_" style="fill:#94696C;" d="M268.569,472.466c0-0.28-0.16-0.507-0.482-0.678
			c-0.321-0.171-0.648-0.255-0.991-0.255c-0.342,0-0.61,0.084-0.818,0.255c-0.203,0.171-0.4,0.421-0.593,0.755
			c-0.013-0.334-0.079-0.584-0.198-0.755c-0.12-0.171-0.313-0.255-0.583-0.255c-0.526,0-0.788,0.364-0.788,1.093v4.513
			c0,0.323,0.078,0.569,0.226,0.733c0.149,0.168,0.341,0.25,0.578,0.25c0.237,0,0.432-0.081,0.586-0.246
			c0.151-0.162,0.234-0.41,0.234-0.737v-1.355c0-0.486,0.014-0.899,0.044-1.238c0.034-0.337,0.09-0.631,0.171-0.877
			c0.083-0.243,0.201-0.426,0.353-0.554c0.149-0.122,0.344-0.186,0.582-0.186c0.171,0,0.373,0.037,0.602,0.108
			c0.226,0.073,0.37,0.112,0.432,0.112c0.157,0,0.304-0.064,0.442-0.195C268.5,472.828,268.569,472.662,268.569,472.466z"/>
		<path id="XMLID_132_" style="fill:#94696C;" d="M274.173,475.045c0.233-0.122,0.35-0.386,0.35-0.791
			c0-0.441-0.112-0.871-0.338-1.296c-0.222-0.423-0.566-0.769-1.018-1.034c-0.454-0.27-0.997-0.403-1.629-0.403
			c-0.488,0-0.931,0.078-1.329,0.234c-0.401,0.156-0.736,0.38-1.008,0.674c-0.276,0.295-0.483,0.643-0.624,1.054
			c-0.144,0.41-0.217,0.855-0.217,1.334c0,1.016,0.292,1.822,0.869,2.417c0.577,0.593,1.385,0.888,2.428,0.888
			c0.454,0,0.858-0.06,1.207-0.178c0.349-0.117,0.639-0.268,0.874-0.447c0.233-0.181,0.405-0.367,0.522-0.566
			c0.111-0.195,0.167-0.365,0.167-0.512c0-0.167-0.049-0.293-0.152-0.386c-0.105-0.092-0.238-0.139-0.405-0.139
			c-0.152,0-0.271,0.038-0.355,0.109c-0.203,0.189-0.367,0.34-0.494,0.449c-0.127,0.113-0.264,0.217-0.415,0.312
			c-0.15,0.097-0.306,0.17-0.465,0.213c-0.161,0.049-0.337,0.07-0.531,0.07c-0.29,0-0.553-0.071-0.793-0.213
			c-0.24-0.144-0.431-0.356-0.577-0.635c-0.144-0.28-0.216-0.607-0.222-0.974h3.17C273.612,475.226,273.94,475.165,274.173,475.045z
			 M270.018,474.305c0.055-0.546,0.214-0.957,0.472-1.236c0.259-0.281,0.591-0.418,0.995-0.418c0.426,0,0.764,0.136,1.025,0.413
			c0.26,0.273,0.406,0.688,0.445,1.241H270.018z"/>
		<path id="XMLID_129_" style="fill:#94696C;" d="M280.913,475.045c0.231-0.122,0.35-0.386,0.35-0.791
			c0-0.441-0.116-0.871-0.34-1.296c-0.222-0.423-0.563-0.769-1.013-1.034c-0.459-0.27-1.002-0.403-1.633-0.403
			c-0.486,0-0.931,0.078-1.33,0.234c-0.4,0.156-0.736,0.38-1.008,0.674c-0.273,0.295-0.481,0.643-0.622,1.054
			c-0.145,0.41-0.217,0.855-0.217,1.334c0,1.016,0.29,1.822,0.868,2.417c0.58,0.593,1.386,0.888,2.428,0.888
			c0.454,0,0.86-0.06,1.208-0.178c0.348-0.117,0.641-0.268,0.873-0.447c0.234-0.181,0.408-0.367,0.519-0.566
			c0.116-0.195,0.171-0.365,0.171-0.512c0-0.167-0.048-0.293-0.15-0.386c-0.105-0.092-0.239-0.139-0.406-0.139
			c-0.151,0-0.271,0.038-0.355,0.109c-0.203,0.189-0.368,0.34-0.493,0.449c-0.127,0.113-0.264,0.217-0.415,0.312
			c-0.152,0.097-0.306,0.17-0.469,0.213c-0.157,0.049-0.336,0.07-0.527,0.07c-0.292,0-0.555-0.071-0.794-0.213
			c-0.239-0.144-0.431-0.356-0.576-0.635c-0.143-0.28-0.217-0.607-0.221-0.974h3.169
			C280.35,475.226,280.678,475.165,280.913,475.045z M276.759,474.305c0.052-0.546,0.211-0.957,0.468-1.236
			c0.261-0.281,0.592-0.418,0.996-0.418c0.425,0,0.763,0.136,1.026,0.413c0.256,0.273,0.406,0.688,0.447,1.241H276.759z"/>
		<path id="XMLID_126_" style="fill:#94696C;" d="M286.922,471.93c-0.42-0.256-0.882-0.386-1.379-0.386
			c-0.415,0-0.789,0.089-1.113,0.267c-0.332,0.176-0.649,0.452-0.953,0.827v-0.194c0-0.297-0.071-0.519-0.217-0.678
			c-0.144-0.156-0.329-0.234-0.56-0.234c-0.233,0-0.419,0.078-0.553,0.228c-0.133,0.155-0.2,0.382-0.2,0.692v6.993
			c0,0.355,0.051,0.62,0.147,0.807c0.101,0.183,0.3,0.275,0.607,0.275c0.517,0,0.777-0.359,0.777-1.068v-2.432
			c0.287,0.358,0.587,0.633,0.901,0.815c0.314,0.187,0.704,0.28,1.165,0.28c0.386,0,0.741-0.076,1.08-0.227
			c0.333-0.153,0.622-0.372,0.868-0.653c0.245-0.284,0.441-0.633,0.581-1.05c0.139-0.419,0.21-0.878,0.21-1.375
			c0-0.677-0.123-1.261-0.366-1.758C287.671,472.564,287.341,472.189,286.922,471.93z M286.446,475.932
			c-0.137,0.312-0.32,0.546-0.552,0.704c-0.229,0.154-0.481,0.233-0.748,0.233c-0.454,0-0.829-0.178-1.133-0.536
			c-0.307-0.358-0.46-0.862-0.46-1.503c0-0.686,0.155-1.204,0.462-1.558c0.306-0.35,0.683-0.527,1.13-0.527
			c0.281,0,0.541,0.084,0.77,0.248c0.229,0.163,0.41,0.397,0.541,0.705c0.131,0.306,0.196,0.674,0.196,1.101
			C286.653,475.241,286.583,475.619,286.446,475.932z"/>
		<path id="XMLID_125_" style="fill:#94696C;" d="M289.895,471.533c-0.238,0-0.428,0.079-0.58,0.245
			c-0.146,0.162-0.222,0.403-0.222,0.721v4.641c0,0.314,0.076,0.556,0.222,0.729c0.151,0.171,0.342,0.254,0.58,0.254
			c0.238,0,0.432-0.082,0.588-0.25c0.154-0.165,0.231-0.41,0.231-0.732v-4.687c0-0.286-0.077-0.513-0.231-0.675
			C290.327,471.612,290.133,471.533,289.895,471.533z"/>
		<path id="XMLID_124_" style="fill:#94696C;" d="M289.913,469.193c-0.217,0-0.408,0.076-0.571,0.222
			c-0.166,0.15-0.248,0.339-0.248,0.569c0,0.253,0.079,0.446,0.242,0.585c0.159,0.138,0.35,0.209,0.577,0.209
			c0.22,0,0.408-0.071,0.566-0.21c0.156-0.14,0.236-0.335,0.236-0.585c0-0.257-0.082-0.455-0.244-0.591
			C290.309,469.26,290.125,469.193,289.913,469.193z"/>
		<path id="XMLID_123_" style="fill:#94696C;" d="M297.251,476.561l-1.661-2.613l0.86-0.789c0.438-0.395,0.659-0.714,0.659-0.951
			c0-0.192-0.068-0.355-0.2-0.483c-0.139-0.128-0.306-0.193-0.51-0.193c-0.168,0-0.312,0.043-0.431,0.13
			c-0.121,0.086-0.29,0.251-0.516,0.486l-1.822,1.914v-3.932c0-0.33-0.074-0.582-0.221-0.751c-0.148-0.171-0.344-0.257-0.593-0.257
			c-0.255,0-0.456,0.092-0.595,0.283c-0.136,0.189-0.207,0.463-0.207,0.821v6.912c0,0.323,0.073,0.569,0.215,0.733
			c0.142,0.168,0.339,0.25,0.588,0.25c0.212,0,0.405-0.083,0.566-0.254c0.165-0.167,0.248-0.406,0.248-0.717v-1.291l0.88-0.83
			l1.427,2.353c0.182,0.278,0.329,0.472,0.436,0.58c0.106,0.11,0.261,0.16,0.459,0.16c0.226,0,0.413-0.073,0.553-0.221
			c0.142-0.15,0.214-0.352,0.214-0.609c0-0.089-0.029-0.189-0.082-0.289C297.464,476.901,297.372,476.757,297.251,476.561z"/>
		<path id="XMLID_122_" style="fill:#94696C;" d="M299.443,476.335c-0.25,0-0.458,0.087-0.63,0.262
			c-0.17,0.173-0.256,0.381-0.256,0.622c0,0.287,0.09,0.51,0.268,0.665c0.178,0.16,0.388,0.238,0.633,0.238
			c0.237,0,0.444-0.078,0.624-0.24c0.174-0.157,0.264-0.379,0.264-0.663c0-0.243-0.089-0.454-0.264-0.626
			C299.903,476.422,299.692,476.335,299.443,476.335z"/>
		<path id="XMLID_121_" style="fill:#94696C;" d="M306.828,475.409c-0.167,0-0.309,0.054-0.422,0.156
			c-0.114,0.104-0.22,0.245-0.319,0.427c-0.177,0.309-0.381,0.538-0.616,0.689c-0.231,0.15-0.509,0.225-0.835,0.225
			c-0.239,0-0.462-0.045-0.665-0.141c-0.201-0.093-0.372-0.229-0.516-0.409c-0.143-0.18-0.251-0.398-0.325-0.652
			c-0.076-0.255-0.115-0.537-0.115-0.842c0-0.646,0.148-1.161,0.439-1.533c0.294-0.375,0.682-0.561,1.158-0.561
			c0.333,0,0.607,0.074,0.821,0.226c0.219,0.148,0.423,0.375,0.622,0.674c0.109,0.157,0.209,0.268,0.299,0.339
			c0.089,0.068,0.201,0.104,0.338,0.104c0.201,0,0.377-0.068,0.523-0.203c0.144-0.135,0.215-0.3,0.215-0.492
			c0-0.191-0.063-0.397-0.193-0.617c-0.127-0.218-0.314-0.423-0.555-0.62c-0.245-0.192-0.541-0.352-0.891-0.474
			c-0.353-0.123-0.736-0.184-1.157-0.184c-0.673,0-1.259,0.139-1.746,0.419c-0.486,0.279-0.858,0.674-1.113,1.183
			c-0.259,0.511-0.387,1.098-0.387,1.765c0,0.981,0.282,1.764,0.841,2.35c0.563,0.582,1.345,0.875,2.348,0.875
			c0.469,0,0.893-0.065,1.269-0.192c0.377-0.126,0.687-0.294,0.934-0.501c0.249-0.207,0.434-0.425,0.554-0.656
			c0.121-0.229,0.182-0.446,0.182-0.646c0-0.169-0.067-0.331-0.199-0.481C307.191,475.486,307.026,475.409,306.828,475.409z"/>
		<path id="XMLID_118_" style="fill:#94696C;" d="M313.639,472.445c-0.288-0.29-0.628-0.517-1.027-0.674
			c-0.4-0.16-0.846-0.238-1.336-0.238c-0.482,0-0.923,0.078-1.325,0.234c-0.398,0.158-0.737,0.38-1.019,0.669
			c-0.281,0.288-0.498,0.636-0.649,1.045c-0.147,0.408-0.223,0.857-0.223,1.348c0,0.485,0.076,0.929,0.218,1.331
			c0.152,0.401,0.37,0.75,0.658,1.048c0.284,0.293,0.626,0.521,1.015,0.676c0.393,0.16,0.835,0.239,1.325,0.239
			c0.493,0,0.937-0.079,1.336-0.234c0.394-0.157,0.736-0.382,1.02-0.675c0.286-0.291,0.502-0.641,0.655-1.049
			c0.146-0.409,0.222-0.855,0.222-1.336c0-0.489-0.074-0.932-0.221-1.339C314.14,473.089,313.924,472.742,313.639,472.445z
			 M312.447,476.361c-0.289,0.372-0.681,0.557-1.171,0.557c-0.324,0-0.604-0.086-0.845-0.253c-0.24-0.168-0.423-0.41-0.554-0.729
			c-0.129-0.316-0.193-0.684-0.193-1.108c0-0.428,0.066-0.803,0.197-1.124c0.131-0.322,0.315-0.564,0.556-0.727
			c0.242-0.164,0.521-0.246,0.839-0.246c0.49,0,0.882,0.182,1.171,0.555c0.289,0.367,0.436,0.881,0.436,1.543
			C312.882,475.479,312.736,475.992,312.447,476.361z"/>
		<path id="XMLID_117_" style="fill:#94696C;" d="M324.276,472.553c-0.159-0.322-0.398-0.573-0.716-0.747
			c-0.321-0.173-0.705-0.262-1.146-0.262c-0.381,0-0.726,0.08-1.038,0.241c-0.314,0.161-0.607,0.408-0.881,0.738
			c-0.191-0.326-0.432-0.572-0.725-0.735c-0.292-0.162-0.642-0.243-1.048-0.243c-0.394,0-0.748,0.079-1.07,0.241
			c-0.319,0.156-0.62,0.403-0.903,0.738v-0.153c0-0.261-0.073-0.466-0.221-0.615c-0.15-0.145-0.334-0.222-0.558-0.222
			c-0.227,0-0.412,0.078-0.555,0.238c-0.14,0.157-0.21,0.389-0.21,0.694v4.636c0,0.336,0.078,0.591,0.236,0.764
			c0.156,0.171,0.356,0.258,0.604,0.258c0.248,0,0.447-0.087,0.603-0.258c0.149-0.173,0.226-0.428,0.226-0.764v-2.189
			c0-0.683,0.087-1.206,0.254-1.566c0.168-0.369,0.516-0.55,1.047-0.55c0.264,0,0.459,0.073,0.582,0.22
			c0.121,0.142,0.198,0.331,0.226,0.552c0.027,0.226,0.04,0.544,0.04,0.952v2.582c0,0.342,0.078,0.594,0.232,0.766
			c0.149,0.171,0.349,0.255,0.594,0.255c0.254,0,0.455-0.084,0.612-0.255c0.155-0.172,0.23-0.425,0.23-0.766v-2.154
			c0-0.694,0.061-1.178,0.177-1.452c0.109-0.21,0.259-0.384,0.45-0.508c0.193-0.126,0.395-0.192,0.609-0.192
			c0.264,0,0.462,0.073,0.595,0.215c0.128,0.142,0.21,0.318,0.239,0.529c0.028,0.209,0.043,0.487,0.043,0.836v2.726
			c0,0.336,0.079,0.591,0.235,0.764c0.156,0.171,0.356,0.258,0.603,0.258c0.253,0,0.458-0.084,0.611-0.255
			c0.154-0.172,0.23-0.425,0.23-0.766v-3.164C324.483,473.309,324.414,472.848,324.276,472.553z"/>
		<path id="XMLID_116_" style="fill:#94696C;" d="M245.357,474.954c-0.031-0.148-0.055-0.294-0.073-0.439
			c0.018,0.146,0.043,0.293,0.072,0.439C245.357,474.954,245.357,474.954,245.357,474.954z"/>
		<path id="XMLID_115_" style="fill:#94696C;" d="M248.78,468.684c0.617-0.206,1.153-0.331,1.639-0.383
			c0.476-0.051,0.834-0.073,1.126-0.073c0.314,0,0.544,0.025,0.809,0.07l0.076-0.477c0,0-0.732-0.225-1.694-0.146l-0.076-0.259
			c0.299-0.063,0.524-0.329,0.524-0.646c0-0.364-0.297-0.658-0.66-0.658c-0.365,0-0.66,0.295-0.66,0.658
			c0,0.317,0.225,0.583,0.522,0.646l0.084,0.289c-1.021,0.14-1.834,0.539-1.834,0.539L248.78,468.684z"/>
		<path id="XMLID_114_" style="fill:#94696C;" d="M245.883,470.634c0.024-0.031,0.047-0.06,0.071-0.089l-0.196-0.141l-0.305-0.223
			c-0.017,0.024-0.497,0.465-0.876,1.279c-0.016-0.026-0.035-0.051-0.056-0.074c-0.113-0.124-0.272-0.187-0.473-0.184
			c-0.002,0-0.006,0-0.01,0c-0.124,0-0.21-0.042-0.266-0.092c0.055-0.071,0.089-0.16,0.089-0.258c0-0.23-0.187-0.418-0.419-0.418
			c-0.23,0-0.417,0.188-0.417,0.418c0,0.231,0.187,0.418,0.417,0.418c0.037,0,0.071-0.006,0.105-0.013
			c0.102,0.114,0.265,0.214,0.504,0.209c0.123-0.001,0.214,0.031,0.273,0.097c0.07,0.076,0.093,0.185,0.1,0.267
			c0,0-0.001,0.003-0.002,0.003c-0.272,0.743-0.195,1.668-0.195,1.668l0.661,0.026c0.013-0.337,0.062-0.926,0.232-1.394
			c0.328-0.906,0.741-1.472,0.757-1.496L245.883,470.634z"/>
		<path id="XMLID_113_" style="fill:#94696C;" d="M257.293,468.78c-0.229,0-0.417,0.187-0.417,0.418c0,0.036,0.005,0.07,0.015,0.103
			c-0.115,0.104-0.215,0.267-0.211,0.506c0.003,0.123-0.029,0.212-0.096,0.273c-0.052,0.047-0.12,0.072-0.184,0.088
			c-0.492-0.689-1.097-1.109-1.097-1.109l-0.475,0.508c0.359,0.326,0.725,0.734,1.08,1.243c0.247,0.352,0.499,0.806,0.71,1.259
			l0.64-0.304c0,0-0.292-0.722-0.703-1.369c0.071-0.025,0.143-0.064,0.206-0.12c0.126-0.113,0.187-0.273,0.183-0.474
			c-0.001-0.13,0.041-0.218,0.093-0.276c0.072,0.054,0.161,0.089,0.257,0.089c0.232,0,0.419-0.187,0.419-0.418
			C257.711,468.967,257.524,468.78,257.293,468.78z"/>
		<path id="XMLID_112_" style="fill:#94696C;" d="M255.633,474.53c-0.881,0.429-2.329,0.996-4.237,1.262
			c-0.749,0.104-1.474,0.142-2.142,0.142c-0.869,0-1.637-0.065-2.226-0.139c-0.672-0.085-1.198-0.189-1.52-0.261h-0.002
			c0.079,0.25,0.175,0.493,0.286,0.724c0.002,0.006,0.005,0.013,0.008,0.017c0.013,0.027,0.027,0.056,0.041,0.083
			c0.013,0.027,0.027,0.054,0.041,0.079c0.004,0.007,0.007,0.015,0.01,0.021c0.189,0.356,0.417,0.684,0.675,0.968
			c0.899,0.984,1.816,1.14,1.824,1.141l0.015,0.001l0.014,0.005c0.008,0.004,0.821,0.266,2.056,0.266
			c1.215,0,2.409-0.245,3.545-0.73c0.842-0.431,1.639-1.085,2.033-1.668c0.305-0.451,0.526-0.933,0.657-1.433
			c0.069-0.266,0.124-0.692,0.091-1.14C256.554,474.034,256.163,474.272,255.633,474.53z"/>
		<path id="XMLID_108_" style="fill:#94696C;" d="M251.323,475.268c1.829-0.254,3.218-0.795,4.061-1.204
			c0.7-0.34,1.151-0.647,1.324-0.774c-0.173-0.642-0.651-1.65-1.089-2.278c-1.253-1.79-2.604-2.25-3.297-2.364
			c-0.265-0.043-0.477-0.068-0.777-0.068c-0.279,0-0.626,0.022-1.089,0.071c-0.465,0.048-0.982,0.17-1.583,0.372
			c-0.842,0.282-1.604,0.724-2.203,1.279l-0.02,0.019c-0.089,0.082-0.275,0.254-0.488,0.525c-0.026,0.037-0.408,0.578-0.709,1.408
			c-0.226,0.622-0.216,1.527-0.216,1.537v0.002c0,0.212,0.012,0.423,0.035,0.632c0,0.005,0,0.008,0.001,0.011
			c0.002,0.027,0.007,0.052,0.01,0.079c0.018,0.145,0.043,0.291,0.074,0.439C245.795,475.065,248.405,475.674,251.323,475.268z
			 M253.828,470.431c0.6,0,1.09,0.488,1.09,1.089c0,0.601-0.489,1.09-1.09,1.09s-1.089-0.489-1.089-1.09
			C252.74,470.919,253.228,470.431,253.828,470.431z M248.679,470.387c0.973,0,1.76,0.788,1.76,1.76c0,0.972-0.788,1.758-1.76,1.758
			c-0.971,0-1.759-0.786-1.759-1.758C246.92,471.176,247.708,470.387,248.679,470.387z"/>
	</g>
</g>
</svg>
